<svg xmlns="http://www.w3.org/2000/svg" width="419.938" height="368" viewBox="0 0 419.938 368">
  <g id="Online_shopping-cuate" data-name="Online shopping-cuate" transform="translate(-22.12 -82.26)">
    <g id="freepik--background-complete--inject-19" transform="translate(36.113 87.168)">
      <rect id="Rectangle_30" data-name="Rectangle 30" width="61.246" height="61.246" transform="translate(314.133 14.922)" fill="#ebebeb"/>
      <path id="Path_302" data-name="Path 302" d="M399.692,118a2.064,2.064,0,0,1,2.081,2.081v1.069a17.483,17.483,0,0,1,7.511,2.661,2.586,2.586,0,0,1,1.451,2.321,2.669,2.669,0,0,1-2.711,2.669,2.8,2.8,0,0,1-1.451-.439,17.608,17.608,0,0,0-4.974-2.131v9.293c7.361,1.84,10.512,4.8,10.512,9.948,0,5.322-4.145,8.862-10.321,9.442v2.9a2.064,2.064,0,0,1-2.081,2.081,2.106,2.106,0,0,1-2.131-2.081v-3a20.882,20.882,0,0,1-9.948-3.78,2.674,2.674,0,1,1,2.951-4.452,17.069,17.069,0,0,0,7.171,3.241v-9.442c-7.071-1.84-10.362-4.51-10.362-9.948,0-5.181,4.145-8.762,10.163-9.243v-1.02A2.106,2.106,0,0,1,399.692,118Zm-1.932,16.58v-8.6c-3.1.29-4.651,1.94-4.651,4.07S394.03,133.336,397.76,134.58Zm3.822,6.731v8.812c3.1-.34,4.792-1.89,4.792-4.211,0-2.164-1.061-3.473-4.792-4.634Z" transform="translate(-53.924 -93.279)" fill="#fff"/>
      <rect id="Rectangle_31" data-name="Rectangle 31" width="61.246" height="61.246" transform="translate(22.292)" fill="#ebebeb"/>
      <path id="Path_303" data-name="Path 303" d="M111.884,133.378H83.325L76.32,108h40.165l1.451-5.853h4.543v1.658h-3.25Zm-27.3-1.658h26.006l5.48-22.093H78.492Z" transform="translate(-45.382 -90.569)" fill="#fff"/>
      <path id="Path_304" data-name="Path 304" d="M89.3,144.495l-1.525-.647,2.553-6.068h19.44l2.106,6.118-1.567.539-1.716-5H91.426Z" transform="translate(-47.34 -96.662)" fill="#fff"/>
      <rect id="Rectangle_32" data-name="Rectangle 32" width="36.476" height="1.658" transform="translate(33.831 23.204)" fill="#fff"/>
      <rect id="Rectangle_33" data-name="Rectangle 33" width="33.002" height="1.658" transform="translate(35.347 29.498) rotate(-0.25)" fill="#fff"/>
      <rect id="Rectangle_34" data-name="Rectangle 34" width="29.902" height="1.658" transform="translate(37.089 35.788)" fill="#fff"/>
      <rect id="Rectangle_35" data-name="Rectangle 35" width="1.658" height="23.602" transform="translate(51.605 18.371)" fill="#fff"/>
      <rect id="Rectangle_36" data-name="Rectangle 36" width="1.658" height="23.684" transform="translate(45.16 18.447) rotate(-4.58)" fill="#fff"/>
      <rect id="Rectangle_37" data-name="Rectangle 37" width="1.658" height="23.999" transform="translate(38.042 18.519) rotate(-10.42)" fill="#fff"/>
      <rect id="Rectangle_38" data-name="Rectangle 38" width="23.684" height="1.658" transform="matrix(0.08, -0.997, 0.997, 0.08, 56.042, 41.907)" fill="#fff"/>
      <rect id="Rectangle_39" data-name="Rectangle 39" width="23.999" height="1.658" transform="translate(69.049 41.83) rotate(-79.59)" fill="#fff"/>
      <path id="Path_305" data-name="Path 305" d="M87.953,148.326a3.573,3.573,0,1,1,3.573-3.573,3.573,3.573,0,0,1-3.573,3.573Zm0-5.488a1.915,1.915,0,1,0,1.915,1.915,1.915,1.915,0,0,0-1.915-1.915Z" transform="translate(-46.76 -97.243)" fill="#fff"/>
      <path id="Path_306" data-name="Path 306" d="M115.063,148.326a3.573,3.573,0,1,1,3.573-3.573,3.573,3.573,0,0,1-3.573,3.573Zm0-5.488a1.915,1.915,0,1,0,1.915,1.915,1.915,1.915,0,0,0-1.915-1.915Z" transform="translate(-43.142 -97.243)" fill="#fff"/>
      <path id="Path_307" data-name="Path 307" d="M90.91,304.778s9.517-34.2,17.127-45.8,21.778-24.356,21.778-24.356S129.483,287.328,90.91,304.778Z" transform="translate(-47.877 -113.222)" fill="#ebebeb"/>
      <path id="Path_308" data-name="Path 308" d="M91.714,307.067a164.572,164.572,0,0,0,8.68-16.58,115.6,115.6,0,0,1,4.725-17.973.092.092,0,1,1,.174.058c-1.268,5.405-2.736,10.777-4.07,16.141,3.847-8.29,7.461-16.746,12.078-24.6a52.227,52.227,0,0,1,4.41-10.943c.05-.1.216-.041.166.066a70.216,70.216,0,0,0-2.968,8.2,81.133,81.133,0,0,1,7.237-9.948c.166-.2.5,0,.332.224-6.118,7.817-10.346,16.7-14.366,25.7a136.993,136.993,0,0,0,11.946-14.922.051.051,0,0,1,.083.058,123.414,123.414,0,0,1-12.791,16.58c-2.935,6.591-5.8,13.214-9.31,19.481,6.98-5.9,12.352-13.538,17.666-20.907a.161.161,0,0,1,.265.182c-5.314,8.083-10.777,15.7-18.47,21.687a84.087,84.087,0,0,1-5.115,7.983.413.413,0,1,1-.671-.481Z" transform="translate(-48.001 -116.092)" fill="#fff"/>
      <path id="Path_309" data-name="Path 309" d="M85.148,301.64s17.119-31.5,12.145-62.1S87,198.09,87,198.09,60.087,245.633,85.148,301.64Z" transform="translate(-45.066 -106.975)" fill="#ebebeb"/>
      <path id="Path_310" data-name="Path 310" d="M78.849,255.166a149.658,149.658,0,0,0,6.632,25.45c.05-11.216.265-22.433.564-33.641a86.8,86.8,0,0,1-3.233-20.882c0-.207.307-.2.323,0a119.292,119.292,0,0,0,2.993,17.964q.4-13.877.9-27.747a.124.124,0,0,1,.24,0c0,14.449,0,28.9-.091,43.348a116.334,116.334,0,0,0,4.974-17.168c0-.05.1-.041.1,0-.514,6.748-2.57,13.264-5.057,19.539-.066,9.235-.166,18.47-.373,27.705,2.9-9.824,5.994-19.332,6.831-29.7a.108.108,0,1,1,.216,0c-.224,11.448-3.175,23.063-6.947,33.823a.729.729,0,0,1-.191.265c-.091,3.382-.182,6.756-.3,10.13a.381.381,0,0,1-.754,0c-.133-6.906-.174-13.811-.166-20.725a92.706,92.706,0,0,1-6.748-28.368C78.691,255.1,78.84,255.083,78.849,255.166Z" transform="translate(-45.797 -110.075)" fill="#fff"/>
      <path id="Path_311" data-name="Path 311" d="M80.211,257.291a60.257,60.257,0,0,1,1.194,8.29.083.083,0,1,1-.166,0,59.73,59.73,0,0,1-1.409-8.29C79.8,257.125,80.17,257.084,80.211,257.291Z" transform="translate(-45.982 -117.075)" fill="#fff"/>
      <path id="Path_312" data-name="Path 312" d="M92.174,229.518c0-.091.158-.058.158,0a21.363,21.363,0,0,1-.829,5.745.124.124,0,0,1-.232-.066C91.618,233.323,91.875,231.417,92.174,229.518Z" transform="translate(-47.938 -112.34)" fill="#fff"/>
      <path id="Path_313" data-name="Path 313" d="M72.84,310.628s.7-32.9-8.746-49.251S39,236.69,39,236.69,45.317,294.678,72.84,310.628Z" transform="translate(-39 -113.576)" fill="#ebebeb"/>
      <path id="Path_314" data-name="Path 314" d="M57.512,284.933a122.447,122.447,0,0,0,12.775,16.19q-2.835-10.1-6.532-19.846c-5.3-4.634-10.537-9.442-13.786-15.751a.091.091,0,0,1,.158-.091c3.482,5.621,8.149,10.122,13.065,14.449a254.945,254.945,0,0,0-13.14-28.609.21.21,0,1,1,.365-.207,156.912,156.912,0,0,1,8.232,15.013c-.879-3.515-1.592-7.113-2.487-10.6a.077.077,0,1,1,.149-.041,61.723,61.723,0,0,1,3.88,13.952,168.36,168.36,0,0,1,8.29,22.507c-.249-4.924-.555-9.84-1.061-14.756a.083.083,0,0,1,.166,0,80,80,0,0,1,1.426,16.58c1.36,4.9,2.487,9.865,3.424,14.864,0,.133-.174.191-.207.058-.514-2.1-1.069-4.145-1.658-6.251a.157.157,0,0,1-.108-.041c-5.032-5.14-9.84-10.926-13.007-17.367C57.454,284.924,57.454,284.9,57.512,284.933Z" transform="translate(-40.874 -116.016)" fill="#fff"/>
      <path id="Path_315" data-name="Path 315" d="M45.846,259.644c1.053,1.136,2.014,2.329,3.034,3.5a27.494,27.494,0,0,1,2.719,3.175c0,.041,0,.1-.075.075a15.9,15.9,0,0,1-3.142-3.1A26.975,26.975,0,0,1,45.7,259.76C45.639,259.669,45.772,259.561,45.846,259.644Z" transform="translate(-40.143 -117.496)" fill="#fff"/>
      <path id="Path_316" data-name="Path 316" d="M105.221,321l-1.194,15.585-3.581,47.1H69.185l-3.59-47.1L64.41,321Z" transform="translate(-43.345 -127.993)" fill="#dbdbdb"/>
      <path id="Path_317" data-name="Path 317" d="M105.221,321l-1.194,15.585H65.6L64.41,321Z" transform="translate(-43.345 -127.993)" fill="#c7c7c7"/>
      <rect id="Rectangle_40" data-name="Rectangle 40" width="46.366" height="11.946" transform="translate(64.645 197.326) rotate(180)" fill="#dbdbdb"/>
    </g>
    <g id="freepik--Shadows--inject-19" transform="translate(22.12 402.361)">
      <ellipse id="Ellipse_3" data-name="Ellipse 3" cx="87.683" cy="13.952" rx="87.683" ry="13.952" transform="translate(0 19.995)" fill="#ebebeb"/>
      <ellipse id="Ellipse_4" data-name="Ellipse 4" cx="87.683" cy="13.952" rx="87.683" ry="13.952" transform="translate(244.572 10.503)" fill="#ebebeb"/>
      <ellipse id="Ellipse_5" data-name="Ellipse 5" cx="88.238" cy="9.998" rx="88.238" ry="9.998" transform="translate(123.171)" fill="#ebebeb"/>
    </g>
    <g id="freepik--Floor--inject-19" transform="translate(24.549 400.296)">
      <path id="Path_318" data-name="Path 318" d="M25.05,396.674l52.172-.207L129.4,396.4l104.363-.141,104.363.141,52.172.066,52.182.207-52.182.2-52.172.075-104.363.141L129.4,396.948l-52.182-.075Z" transform="translate(-25.05 -396.26)" fill="#263238"/>
    </g>
    <g id="freepik--credit-card--inject-19" transform="translate(301.381 205.256)">
      <path id="Path_319" data-name="Path 319" d="M431.729,219.151l-7.8,66.278a6.765,6.765,0,0,1-7.461,5.927L311.309,278.988a6.765,6.765,0,0,1-5.919-7.5l7.8-66.32a6.292,6.292,0,0,1,6.98-5.5L426.217,212.1a6.292,6.292,0,0,1,5.513,7.055Z" transform="translate(-305.344 -199.618)" fill="#263238"/>
      <path id="Path_320" data-name="Path 320" d="M426.553,288.008a6.217,6.217,0,1,1-5.447-6.9,6.217,6.217,0,0,1,5.447,6.9Z" transform="translate(-323.952 -213.546)" fill="#455a64"/>
      <path id="Path_321" data-name="Path 321" d="M435.714,289.088a6.217,6.217,0,1,1-5.446-6.9,6.217,6.217,0,0,1,5.446,6.9Z" transform="translate(-325.519 -213.731)" fill="#ca516b"/>
      <rect id="Rectangle_41" data-name="Rectangle 41" width="22.408" height="15.486" rx="4.2" transform="matrix(0.993, 0.117, -0.117, 0.993, 17.205, 11.887)" fill="#ca516b"/>
      <path id="Path_322" data-name="Path 322" d="M436.49,235.619l-10.064-1.185a4.253,4.253,0,0,1-3.722-4.717h0a4.244,4.244,0,0,1,4.709-3.722l10.072,1.185a4.253,4.253,0,0,1,3.722,4.717h0A4.253,4.253,0,0,1,436.49,235.619Z" transform="translate(-325.408 -204.123)" fill="#455a64"/>
      <path id="Path_323" data-name="Path 323" d="M321.646,249.149,321,254.588a.514.514,0,0,1-.572.448.506.506,0,0,1-.448-.572l.531-4.535-.39.166a.448.448,0,0,1-.265.05.5.5,0,0,1-.406-.315.489.489,0,0,1,.249-.672l1.21-.539h.348a.058.058,0,0,1,.05,0h.058v.083h0a.091.091,0,0,1,0,.05.058.058,0,0,0,0,.041.288.288,0,0,0,0,.05v.066Z" transform="translate(-307.747 -207.996)" fill="#f8f8f8"/>
      <path id="Path_324" data-name="Path 324" d="M326.885,255.3a.506.506,0,0,1-.564.448l-3.266-.39h0a.5.5,0,0,1-.357-.207.514.514,0,0,1,.108-.721l3.018-2.147a1.161,1.161,0,0,0,.5-.829,1.194,1.194,0,0,0-1.053-1.335,1.235,1.235,0,0,0-.829.207l-.315.232a.514.514,0,0,1-.6-.829l.315-.224a2.18,2.18,0,0,1,1.559-.4,2.205,2.205,0,0,1,1.55.92,2.155,2.155,0,0,1,.4,1.55,2.238,2.238,0,0,1-.92,1.559L324.5,254.5l1.965.232a.514.514,0,0,1,.423.564Z" transform="translate(-308.294 -208.077)" fill="#f8f8f8"/>
      <path id="Path_325" data-name="Path 325" d="M333.231,252.553a2.246,2.246,0,0,1,.481,1.658,2.3,2.3,0,0,1-4.1,1.161.526.526,0,0,1,.829-.647,1.235,1.235,0,0,0,.829.456,1.277,1.277,0,0,0,.928-.249,1.293,1.293,0,0,0,.473-.829,1.26,1.26,0,0,0-.265-.92,1.293,1.293,0,0,0-.829-.473.473.473,0,0,1-.356-.207h0a.531.531,0,0,1,.066-.746l1.053-.829-1.492-.174a.526.526,0,1,1,.124-1.045l2.719.323a.514.514,0,0,1,.464.572.6.6,0,0,1-.091.249.711.711,0,0,1-.108.116l-1.3,1.061a2.114,2.114,0,0,1,.572.522Z" transform="translate(-309.476 -208.183)" fill="#f8f8f8"/>
      <path id="Path_326" data-name="Path 326" d="M341.173,255.826a.522.522,0,0,1-.58.448H340.5l-.083.7a.51.51,0,1,1-1.011-.124l.075-.7-2.885-.34h0a.49.49,0,0,1-.3-.149.5.5,0,0,1,0-.721l3.913-3.838h0a.083.083,0,0,0,.05,0h.041a.066.066,0,0,1,.058,0h.29a.05.05,0,0,0,.042,0h.058l.041.041h.041a.124.124,0,0,1,0,.05h0v.05a.066.066,0,0,0,0,.041s0,0,0,.058h0v.1h0l-.439,3.722h.091a.522.522,0,0,1,.688.655Zm-1.3-2.976-2.1,2.056,1.832.216Z" transform="translate(-310.611 -208.422)" fill="#f8f8f8"/>
      <path id="Path_327" data-name="Path 327" d="M353.966,255.02a2.313,2.313,0,0,1,.481,1.708,2.288,2.288,0,0,1-.829,1.534,2.247,2.247,0,0,1-1.658.481h0a2.222,2.222,0,0,1-1.525-.829.506.506,0,0,1,.083-.738.522.522,0,0,1,.738.091,1.219,1.219,0,0,0,.829.473,1.256,1.256,0,0,0,.29-2.5,1.244,1.244,0,0,0-.928.257.531.531,0,0,1-.738-.083,1.172,1.172,0,0,1-.083-.133h0a.116.116,0,0,0,0-.05.181.181,0,0,0,0-.066h0a.92.92,0,0,1,0-.158l.564-2.354a.539.539,0,0,1,.274-.34h0a.605.605,0,0,1,.249,0l2.719.323a.522.522,0,1,1-.124,1.036l-2.263-.265-.224.9a2.67,2.67,0,0,1,.63,0A2.321,2.321,0,0,1,353.966,255.02Z" transform="translate(-313.034 -208.627)" fill="#f8f8f8"/>
      <path id="Path_328" data-name="Path 328" d="M361.583,257.643a2.255,2.255,0,0,1-4.493-.29h0a2.258,2.258,0,0,1,.041-.531,5.612,5.612,0,0,1,.547-1.857,3.316,3.316,0,0,1,1.376-1.434,2.653,2.653,0,0,1,1.434-.274.522.522,0,0,1,.481.555.555.555,0,0,1-.564.481,1.716,1.716,0,0,0-.9.149,1.89,1.89,0,0,0-.655.58,1.317,1.317,0,0,0-.149.224,2.189,2.189,0,0,1,.9-.083,2.263,2.263,0,0,1,1.973,2.479Zm-1.028-.116a1.219,1.219,0,1,0-1.351,1.07,1.218,1.218,0,0,0,1.351-1.07Z" transform="translate(-314.193 -208.788)" fill="#f8f8f8"/>
      <path id="Path_329" data-name="Path 329" d="M368.591,254.827l-2.943,5.181a.489.489,0,0,1-.506.249.621.621,0,0,1-.191-.058.531.531,0,0,1-.2-.7L367.3,255l-2.371-.274a.522.522,0,0,1-.448-.58.514.514,0,0,1,.564-.448l3.167.373h.091l.182.1h0v.041h0v.041a.208.208,0,0,0,0,.058v.091a.885.885,0,0,1,0,.207Z" transform="translate(-315.456 -208.865)" fill="#f8f8f8"/>
      <path id="Path_330" data-name="Path 330" d="M374.66,259.217a2.213,2.213,0,1,1-3.2-2.238,1.5,1.5,0,0,1-.2-.953,1.534,1.534,0,0,1,3.042.365,1.484,1.484,0,0,1-.414.829A2.23,2.23,0,0,1,374.66,259.217Zm-1-.124a1.081,1.081,0,1,0,0,.008Zm-1.393-2.943a.539.539,0,0,0,.464.589.531.531,0,0,0,.572-.473.522.522,0,0,0-1.036-.116Z" transform="translate(-316.443 -209.044)" fill="#f8f8f8"/>
      <path id="Path_331" data-name="Path 331" d="M384.338,258.281a2.255,2.255,0,0,1,4.493.29h0a2.224,2.224,0,0,1-.041.522,5.2,5.2,0,0,1-.547,1.857,3.217,3.217,0,0,1-1.368,1.434,2.67,2.67,0,0,1-1.434.274.522.522,0,0,1-.481-.555.539.539,0,0,1,.564-.473,1.716,1.716,0,0,0,.9-.157,1.965,1.965,0,0,0,.655-.58,1.5,1.5,0,0,0,.149-.224,2.2,2.2,0,0,1-.9.083,2.263,2.263,0,0,1-1.981-2.47Zm1.02.116a1.235,1.235,0,0,0,1.078,1.36,1.219,1.219,0,1,0-1.078-1.36Z" transform="translate(-318.85 -209.31)" fill="#f8f8f8"/>
      <path id="Path_332" data-name="Path 332" d="M391.313,260.118a4.02,4.02,0,0,1,.887-2.131,2.081,2.081,0,0,1,1.84-.829,2.106,2.106,0,0,1,1.583,1.219,4.021,4.021,0,0,1,.356,2.28,3.963,3.963,0,0,1-.879,2.131,1.948,1.948,0,0,1-3.415-.406A4,4,0,0,1,391.313,260.118Zm3.648.423a3.15,3.15,0,0,0-.249-1.658,1.094,1.094,0,0,0-.829-.663,1.111,1.111,0,0,0-.937.464,3.018,3.018,0,0,0-.638,1.583,2.96,2.96,0,0,0,.249,1.658,1.136,1.136,0,0,0,.829.68,1.094,1.094,0,0,0,.92-.473,3.017,3.017,0,0,0,.655-1.592Z" transform="translate(-320.04 -209.456)" fill="#f8f8f8"/>
      <path id="Path_333" data-name="Path 333" d="M401.4,258.531l-.638,5.438a.514.514,0,0,1-.58.448.506.506,0,0,1-.448-.564l.539-4.543-.4.174a.533.533,0,0,1-.423-.978l1.235-.506h.489a.084.084,0,0,1,0,.041h0v.041h0v.216Z" transform="translate(-321.385 -209.601)" fill="#f8f8f8"/>
      <path id="Path_334" data-name="Path 334" d="M406.645,264.707a.506.506,0,0,1-.572.448l-3.266-.448h0a.473.473,0,0,1-.356-.207.514.514,0,0,1,.108-.713l3.026-2.155a1.186,1.186,0,0,0,.489-.829,1.21,1.21,0,0,0-.207-.829,1.16,1.16,0,0,0-.829-.489,1.235,1.235,0,0,0-.829.207l-.315.224a.5.5,0,0,1-.713-.124.506.506,0,0,1,.124-.713l.315-.224a2.2,2.2,0,0,1,1.55-.4,2.271,2.271,0,0,1,1.559.92,2.222,2.222,0,0,1,.4,1.559,2.247,2.247,0,0,1-.928,1.55l-1.965,1.393,1.965.232a.514.514,0,0,1,.448.6Z" transform="translate(-321.933 -209.677)" fill="#f8f8f8"/>
      <path id="Path_335" data-name="Path 335" d="M419.66,262.731a2.305,2.305,0,0,1-3.623,2.852.531.531,0,0,1,.091-.738.522.522,0,0,1,.738.091,1.2,1.2,0,0,0,.829.456,1.26,1.26,0,0,0,.928-.249,1.227,1.227,0,0,0,.473-.829,1.186,1.186,0,0,0-.265-.92,1.268,1.268,0,0,0-.829-.473.489.489,0,0,1-.365-.207h0a.522.522,0,0,1,.075-.738l1.053-.829-1.492-.174a.522.522,0,0,1-.456-.589.514.514,0,0,1,.572-.456l2.719.323a.522.522,0,0,1,.473.572.6.6,0,0,1-.1.249.713.713,0,0,1-.108.116l-1.3,1.061A2.272,2.272,0,0,1,419.66,262.731Z" transform="translate(-324.254 -209.931)" fill="#f8f8f8"/>
      <path id="Path_336" data-name="Path 336" d="M427.6,266.025a.514.514,0,0,1-.58.439h-.091l-.083.7a.51.51,0,1,1-1.011-.124l.083-.7-2.885-.34h0a.489.489,0,0,1-.3-.149.506.506,0,0,1,0-.721l3.913-3.838h.431a.058.058,0,0,0,.05,0h.05l.041.05h.041v.091a.091.091,0,0,0,0,.041.258.258,0,0,1,0,.058s0,0,0,.041a.05.05,0,0,1,0,.05s0,0,0,.05h0l-.439,3.73h.091a.522.522,0,0,1,.688.613Zm-1.293-2.976-2.106,2.056,1.832.216Z" transform="translate(-325.392 -210.166)" fill="#f8f8f8"/>
      <path id="Path_337" data-name="Path 337" d="M433.719,264.412a2.263,2.263,0,0,1,.489,1.658,2.355,2.355,0,0,1-.829,1.534,2.271,2.271,0,0,1-1.658.489h0a2.238,2.238,0,0,1-1.525-.829.506.506,0,0,1,.083-.73.539.539,0,0,1,.746.083,1.244,1.244,0,0,0,1.757.207,1.31,1.31,0,0,0,.473-.829,1.26,1.26,0,0,0-2.023-1.136.547.547,0,0,1-.746-.091,1.159,1.159,0,0,0-.083-.133h0a.05.05,0,0,0,0-.05v-.066h0a.324.324,0,0,1,0-.158l.439-2.437a.613.613,0,0,1,.274-.348h0a.464.464,0,0,1,.24,0l2.719.323a.522.522,0,0,1,.464.589.531.531,0,0,1-.58.456l-2.271-.265-.216.9a2.313,2.313,0,0,1,2.155.829Z" transform="translate(-326.674 -210.21)" fill="#f8f8f8"/>
      <path id="Path_338" data-name="Path 338" d="M441.334,267.033a2.247,2.247,0,0,1-4.485-.3h0a2.293,2.293,0,0,1,.041-.531,5.379,5.379,0,0,1,.547-1.849,3.191,3.191,0,0,1,1.376-1.434,2.636,2.636,0,0,1,1.434-.274.514.514,0,0,1,.473.547.539.539,0,0,1-.555.481,1.658,1.658,0,0,0-.9.157,1.848,1.848,0,0,0-.655.572,2.217,2.217,0,0,0-.149.232,2.1,2.1,0,0,1,.912-.083,2.238,2.238,0,0,1,1.965,2.479Zm-1.02-.124a1.223,1.223,0,1,0-1.355,1.074A1.223,1.223,0,0,0,440.314,266.909Z" transform="translate(-327.831 -210.394)" fill="#f8f8f8"/>
      <rect id="Rectangle_42" data-name="Rectangle 42" width="56.678" height="2.785" transform="matrix(0.993, 0.117, -0.117, 0.993, 11.767, 58.155)" fill="#f8f8f8"/>
      <rect id="Rectangle_43" data-name="Rectangle 43" width="40.123" height="2.785" transform="matrix(0.993, 0.117, -0.117, 0.993, 11.042, 64.309)" fill="#f8f8f8"/>
      <rect id="Rectangle_44" data-name="Rectangle 44" width="28.269" height="2.785" transform="matrix(0.993, 0.117, -0.117, 0.993, 65.851, 17.613)" fill="#f8f8f8"/>
    </g>
    <g id="freepik--Device--inject-19" transform="translate(157.39 82.26)">
      <path id="Path_339" data-name="Path 339" d="M310.41,98.089V395.018c.06,8.664-5.674,15.751-12.816,15.84H171c-7.137-.088-12.868-7.171-12.808-15.829V98.089c-.064-8.661,5.669-15.747,12.808-15.829h126.6c7.142.077,12.881,7.165,12.816,15.83Z" transform="translate(-158.189 -82.26)" fill="#455a64"/>
      <path id="Path_340" data-name="Path 340" d="M304.052,113.21V388.628c0,8.415-5.132,15.263-11.465,15.263H179.322c-6.342,0-11.482-6.817-11.482-15.263V113.21c0-17.155,5.14-20.94,11.482-20.94h22.69c1.318,0,2.4,1.832,2.4,4.07v1.018c0,5.342,2.379,5.362,5.306,5.362H262.18c2.951,0,5.314,0,5.314-5.362V96.34c0-2.269,1.061-4.07,2.4-4.07h22.7C298.954,92.27,304.052,97.5,304.052,113.21Z" transform="translate(-159.84 -83.972)" fill="#fff"/>
      <path id="Path_341" data-name="Path 341" d="M255.5,95.634H241.187a.887.887,0,0,1-.887-.887h0a.887.887,0,0,1,.887-.887H255.5a.887.887,0,0,1,.887.887h0A.887.887,0,0,1,255.5,95.634Z" transform="translate(-172.231 -84.244)" fill="#fff"/>
      <rect id="Rectangle_45" data-name="Rectangle 45" width="105.009" height="123.305" transform="translate(23.602 69.938)" fill="#ebebeb"/>
      <path id="Path_342" data-name="Path 342" d="M310.476,308.612a16.06,16.06,0,0,1-4.394,4.46,15.962,15.962,0,0,1-4.385-4.46c-1.459-2.678-.655-5.422,1.442-5.422,2.338,0,2.943,2.918,2.943,2.918s.613-2.918,2.943-2.918C311.123,303.19,311.935,305.934,310.476,308.612Z" transform="translate(-182.603 -79.526)" fill="#ca516b"/>
      <rect id="Rectangle_46" data-name="Rectangle 46" width="12.012" height="1.973" transform="translate(23.602 27.63)" fill="#dbdbdb"/>
      <rect id="Rectangle_47" data-name="Rectangle 47" width="12.012" height="1.973" transform="translate(23.602 31.585)" fill="#dbdbdb"/>
      <rect id="Rectangle_48" data-name="Rectangle 48" width="12.012" height="1.973" transform="translate(23.602 35.531)" fill="#dbdbdb"/>
      <rect id="Rectangle_49" data-name="Rectangle 49" width="1.658" height="6.69" transform="translate(92.352 32.157) rotate(-37.15)" fill="#dbdbdb"/>
      <path id="Path_343" data-name="Path 343" d="M271.6,116.85a3.6,3.6,0,1,1-5.049-.663,3.6,3.6,0,0,1,5.049.663Z" transform="translate(-176.479 -87.935)" fill="#dbdbdb"/>
      <path id="Path_344" data-name="Path 344" d="M270.753,118.026a2.155,2.155,0,1,1-3.018-.4,2.155,2.155,0,0,1,3.018.4Z" transform="translate(-176.777 -88.232)" fill="#fff"/>
      <path id="Path_345" data-name="Path 345" d="M292.906,121.012a16.06,16.06,0,0,1-4.394,4.46,15.962,15.962,0,0,1-4.385-4.46c-1.459-2.678-.655-5.422,1.442-5.422,2.338,0,2.943,2.918,2.943,2.918s.613-2.918,2.943-2.918C293.553,115.59,294.365,118.334,292.906,121.012Z" transform="translate(-179.598 -87.96)" fill="#ca516b"/>
      <path id="Path_346" data-name="Path 346" d="M303.979,118.45h6.781l.829,7.511H303.15Z" transform="translate(-182.978 -88.449)" fill="#dbdbdb"/>
      <path id="Path_347" data-name="Path 347" d="M305.684,118.813a4.219,4.219,0,0,1,.63-2.86,1.8,1.8,0,0,1,1.418-.613,1.89,1.89,0,0,1,1.434.605,4.36,4.36,0,0,1,.779,2.852l-.829-.058a3.523,3.523,0,0,0-.555-2.23,1.144,1.144,0,0,0-1.658,0,3.316,3.316,0,0,0-.431,2.213Z" transform="translate(-183.407 -87.917)" fill="#dbdbdb"/>
      <rect id="Rectangle_50" data-name="Rectangle 50" width="66.013" height="1.865" transform="translate(23.602 224.833)" fill="#dbdbdb"/>
      <rect id="Rectangle_51" data-name="Rectangle 51" width="56.77" height="1.865" transform="translate(23.602 229.072)" fill="#dbdbdb"/>
      <path id="Path_348" data-name="Path 348" d="M178.113,219.252l-2.653-2.487,2.653-2.5.431.456-2.18,2.039,2.18,2.031Z" transform="translate(-161.143 -81.072)" fill="#c7c7c7"/>
      <path id="Path_349" data-name="Path 349" d="M177.082,220.8a4.443,4.443,0,1,1,4.435-4.435,4.443,4.443,0,0,1-4.435,4.435Zm0-8.05a3.614,3.614,0,1,0,3.606,3.614,3.614,3.614,0,0,0-3.606-3.614Z" transform="translate(-160.659 -80.746)" fill="#c7c7c7"/>
      <path id="Path_350" data-name="Path 350" d="M321.251,219.252l-.431-.456,2.172-2.031-2.172-2.039.431-.456,2.653,2.5Z" transform="translate(-186 -81.072)" fill="#c7c7c7"/>
      <path id="Path_351" data-name="Path 351" d="M321.083,220.8a4.443,4.443,0,1,1,4.443-4.435,4.443,4.443,0,0,1-4.443,4.435Zm0-8.05a3.614,3.614,0,1,0,3.614,3.614A3.614,3.614,0,0,0,321.083,212.747Z" transform="translate(-185.285 -80.746)" fill="#c7c7c7"/>
      <path id="Path_352" data-name="Path 352" d="M191.314,321.37a.423.423,0,0,1,.423.431v.216a3.764,3.764,0,0,1,1.542.547.539.539,0,0,1,.3.481.547.547,0,0,1-.555.547.6.6,0,0,1-.3-.091,3.763,3.763,0,0,0-1.028-.439v1.915c1.517.373,2.164.978,2.164,2.048s-.829,1.816-2.122,1.94v.6a.423.423,0,0,1-.423.423.431.431,0,0,1-.439-.423v-.622a4.286,4.286,0,0,1-2.039-.771.564.564,0,0,1-.265-.481.539.539,0,0,1,.547-.547.564.564,0,0,1,.323.108,3.556,3.556,0,0,0,1.476.671v-1.965c-1.451-.373-2.131-.92-2.131-2.048a2,2,0,0,1,2.089-1.9V321.8a.431.431,0,0,1,.439-.431Zm-.4,3.391V323c-.638.058-.953.4-.953.829S190.145,324.512,190.916,324.761Zm.779,1.384v1.807c.638-.066.987-.381.987-.829s-.216-.738-.987-.978Z" transform="translate(-163.385 -79.513)" fill="#263238"/>
      <path id="Path_353" data-name="Path 353" d="M200.66,328.543a.539.539,0,0,1-.547.547h-3.54a.547.547,0,0,1-.406-.182.555.555,0,0,1,0-.779l2.943-2.661a1.243,1.243,0,0,0,.423-.953,1.285,1.285,0,0,0-2.147-.953l-.307.274a.555.555,0,0,1-.738-.829l.307-.282a2.363,2.363,0,0,1,1.6-.613,2.382,2.382,0,0,1,1.6,4.153l-1.882,1.7h2.18a.547.547,0,0,1,.514.58Z" transform="translate(-164.656 -79.775)" fill="#263238"/>
      <path id="Path_354" data-name="Path 354" d="M203.28,325.612a4.294,4.294,0,0,1,.672-2.379,2.1,2.1,0,0,1,3.689,0,4.535,4.535,0,0,1,0,4.75,2.089,2.089,0,0,1-3.689,0A4.286,4.286,0,0,1,203.28,325.612Zm3.929,0a3.316,3.316,0,0,0-.481-1.774,1.161,1.161,0,0,0-.928-.605,1.21,1.21,0,0,0-.945.605,3.536,3.536,0,0,0,0,3.532,1.2,1.2,0,0,0,.945.613,1.152,1.152,0,0,0,.928-.613,3.217,3.217,0,0,0,.464-1.757Z" transform="translate(-165.9 -79.779)" fill="#263238"/>
      <path id="Path_355" data-name="Path 355" d="M212.512,328.819a.746.746,0,1,1-.668.742.746.746,0,0,1,.668-.742Z" transform="translate(-167.365 -80.617)" fill="#263238"/>
      <path id="Path_356" data-name="Path 356" d="M214.08,325.612a4.294,4.294,0,0,1,.671-2.379,2.1,2.1,0,0,1,3.689,0,4.535,4.535,0,0,1,0,4.75,2.089,2.089,0,0,1-3.689,0A4.286,4.286,0,0,1,214.08,325.612Zm3.929,0a3.316,3.316,0,0,0-.481-1.774,1.161,1.161,0,0,0-.928-.605,1.21,1.21,0,0,0-.945.605,3.535,3.535,0,0,0,0,3.532,1.2,1.2,0,0,0,.945.613,1.152,1.152,0,0,0,.928-.613,3.217,3.217,0,0,0,.481-1.758Z" transform="translate(-167.747 -79.779)" fill="#263238"/>
      <path id="Path_357" data-name="Path 357" d="M222.6,325.612a4.3,4.3,0,0,1,.672-2.379,2.1,2.1,0,0,1,3.689,0,4.535,4.535,0,0,1,0,4.75,2.089,2.089,0,0,1-3.689,0,4.286,4.286,0,0,1-.671-2.371Zm3.929,0a3.316,3.316,0,0,0-.481-1.774,1.161,1.161,0,0,0-.928-.605,1.21,1.21,0,0,0-.945.605,3.535,3.535,0,0,0,0,3.532,1.2,1.2,0,0,0,.945.613,1.152,1.152,0,0,0,.928-.613,3.217,3.217,0,0,0,.481-1.758Z" transform="translate(-169.204 -79.779)" fill="#263238"/>
      <rect id="Rectangle_52" data-name="Rectangle 52" width="84.558" height="18.561" transform="translate(32.63 271.696)" fill="#263238"/>
      <path id="Path_358" data-name="Path 358" d="M212.751,353.121H210.33l-.481,1.293a.564.564,0,0,1-.522.348.769.769,0,0,1-.191,0,.564.564,0,0,1-.323-.713l2.2-5.861a.572.572,0,0,1,1.053,0l2.2,5.861a.564.564,0,0,1-.332.713.6.6,0,0,1-.182,0,.531.531,0,0,1-.506-.348Zm-.406-1.094-.829-2.139-.829,2.139Z" transform="translate(-166.841 -69.944)" fill="#fff"/>
      <path id="Path_359" data-name="Path 359" d="M217,354.206v-5.869a.539.539,0,0,1,.547-.547h1.169a3.482,3.482,0,0,1,0,6.964H217.58a.547.547,0,0,1-.58-.547Zm1.1-.564h.613a2.379,2.379,0,0,0,0-4.75H218.1Z" transform="translate(-168.246 -69.935)" fill="#fff"/>
      <path id="Path_360" data-name="Path 360" d="M225.31,354.206v-5.869a.539.539,0,0,1,.547-.547h1.169a3.482,3.482,0,0,1,0,6.964h-1.144a.539.539,0,0,1-.572-.547Zm1.1-.564h.613a2.379,2.379,0,0,0,0-4.75h-.613Z" transform="translate(-169.667 -69.935)" fill="#fff"/>
      <path id="Path_361" data-name="Path 361" d="M241.682,348.893H240.1v5.314a.547.547,0,1,1-1.094,0v-5.314h-1.567a.547.547,0,0,1-.547-.555.539.539,0,0,1,.547-.547h4.244a.547.547,0,0,1,.547.547.555.555,0,0,1-.547.555Z" transform="translate(-171.648 -69.935)" fill="#fff"/>
      <path id="Path_362" data-name="Path 362" d="M250.075,348.611a3.681,3.681,0,0,1,1,2.487,3.631,3.631,0,0,1-1,2.487,3.258,3.258,0,0,1-2.379,1.069,3.316,3.316,0,0,1-2.429-1.069,3.581,3.581,0,0,1-.986-2.487,3.631,3.631,0,0,1,.986-2.487,3.316,3.316,0,0,1,2.429-1.061,3.225,3.225,0,0,1,2.379,1.061Zm-.133,2.487a2.578,2.578,0,0,0-.671-1.741,2.147,2.147,0,0,0-3.183,0,2.578,2.578,0,0,0,0,3.474,2.13,2.13,0,0,0,3.183,0,2.553,2.553,0,0,0,.671-1.7Z" transform="translate(-172.911 -69.894)" fill="#fff"/>
      <path id="Path_363" data-name="Path 363" d="M258.08,351.131a3.648,3.648,0,0,1,3.648-3.581,3.705,3.705,0,0,1,2.3.779.572.572,0,0,1-.7.9,2.487,2.487,0,0,0-1.6-.547,2.611,2.611,0,0,0-1.791.713,2.445,2.445,0,0,0,0,3.465,2.653,2.653,0,0,0,1.791.713,2.487,2.487,0,0,0,1.6-.547.605.605,0,0,1,.829.108.58.58,0,0,1-.1.829,3.706,3.706,0,0,1-2.3.779,3.639,3.639,0,0,1-3.681-3.614Z" transform="translate(-175.271 -69.894)" fill="#fff"/>
      <path id="Path_364" data-name="Path 364" d="M270.981,353.121h-2.412l-.489,1.293a.564.564,0,0,1-.514.348.654.654,0,0,1-.191,0,.564.564,0,0,1-.332-.713l2.2-5.861a.572.572,0,0,1,.531-.348.556.556,0,0,1,.531.348l2.2,5.861a.564.564,0,0,1-.332.713.606.606,0,0,1-.191,0,.547.547,0,0,1-.506-.348Zm-.406-1.094-.829-2.139-.829,2.139Z" transform="translate(-176.798 -69.943)" fill="#fff"/>
      <path id="Path_365" data-name="Path 365" d="M279.854,353.918a.555.555,0,0,1-.348.7.987.987,0,0,1-.224,0h0a.73.73,0,0,1-.39-.116.987.987,0,0,1-.315-.348,2.636,2.636,0,0,1-.207-1.194.771.771,0,0,0-.124-.423.911.911,0,0,0-.3-.29,1.964,1.964,0,0,0-.555-.24h-1.169v2.164a.555.555,0,0,1-.555.547.539.539,0,0,1-.547-.547V348.3a.539.539,0,0,1,.547-.547h1.774a2.13,2.13,0,0,1,1.351,3.772,1.467,1.467,0,0,1,.348.365,1.882,1.882,0,0,1,.332,1.069,2.321,2.321,0,0,0,.041.589.564.564,0,0,1,.34.373Zm-1.393-4a1.028,1.028,0,0,0-1.028-1.036h-1.219v2.048h1.219a1.02,1.02,0,0,0,1.028-1.011Z" transform="translate(-178.185 -69.928)" fill="#fff"/>
      <path id="Path_366" data-name="Path 366" d="M286.682,348.893H285.1v5.314a.547.547,0,1,1-1.094,0v-5.314h-1.567a.547.547,0,0,1-.547-.555.539.539,0,0,1,.547-.547h4.244a.547.547,0,0,1,.547.547.555.555,0,0,1-.547.555Z" transform="translate(-179.343 -69.935)" fill="#fff"/>
      <path id="Path_367" data-name="Path 367" d="M276.05,251.887c-.075.589-5.14,6.4-9.989,6.383-9.716,0-14.458,4.4-22.822,4.4s-13.106-4.427-22.831-4.4c-4.841,0-9.948-5.8-9.948-6.383s14.308-61.346,14.308-61.346a4.062,4.062,0,0,1-1.243-2.785c-.141-1.907,3.266-19.448,3.316-21.653s-1.874-15.411-1.658-16.439,5.645-1.658,5.8-1.177,1.31,13.5,1.973,14.748,6.756,2.23,10.28,2.23,9.616-.953,10.28-2.205,1.832-14.234,1.973-14.748,5.579.149,5.8,1.177-1.724,14.234-1.658,16.439,3.49,19.747,3.316,21.653a4.1,4.1,0,0,1-1.252,2.785S276.125,251.3,276.05,251.887Z" transform="translate(-167.128 -73.356)" fill="#ca516b"/>
      <path id="Path_368" data-name="Path 368" d="M232.6,175.473a.92.92,0,1,1,.656-.267A.92.92,0,0,1,232.6,175.473Zm0-1.658a.7.7,0,1,1,0,.025ZM231.5,189.806a.387.387,0,1,1,0,.025Zm0-1.658a.693.693,0,1,1,0,.041Zm-6.748.29a.385.385,0,1,1,0,.041Zm0-1.658a.693.693,0,1,1,0,.058Zm7.569,10.346a.92.92,0,1,1,.656-.267A.92.92,0,0,1,232.323,197.126Zm0-1.658a.693.693,0,1,1,0,.041Zm-7.983,2.761a.387.387,0,1,1,0,.041Zm0-1.658a.685.685,0,1,1,0,.058Zm9.119-14.408a.847.847,0,1,1-.041.041Zm0-1.658a.295.295,0,1,1-.041.041Zm3.092,12.559a.555.555,0,1,1-.041.075Zm0-1.658a.721.721,0,1,0,.713.713.713.713,0,0,0-.754-.622Zm6.367,11.846a.5.5,0,1,1-.041.091Zm0-1.658a.536.536,0,1,1-.041.108Zm13.438,5.48a.92.92,0,1,1,.92-.92.92.92,0,0,1-.92.92Zm0-1.658a.713.713,0,1,0,.713.713A.713.713,0,0,0,256.356,205.416Zm-17.019,2.736a.928.928,0,1,1,.92-.92A.928.928,0,0,1,239.336,208.152Zm0-1.658a.721.721,0,1,0,.713.721.713.713,0,0,0-.713-.7Zm-9.84,9.235a.355.355,0,1,1,.008.017Zm0-1.658a.713.713,0,1,0,.713.713.721.721,0,0,0-.7-.671Zm-8.4,9.235a.928.928,0,1,1,.92-.928.928.928,0,0,1-.92.928Zm0-1.658a.7.7,0,1,1,0,.017Zm13.554,4.974a1.715,1.715,0,1,1-.025.017Zm0-1.658a.721.721,0,1,0,.713.713.713.713,0,0,0-.738-.68Zm-3.125-62.871a.667.667,0,1,1-.025.033Zm0-1.658a.529.529,0,1,1-.025.05Zm3.946,9.691a.53.53,0,1,1-.025.05Zm0-1.658a.545.545,0,1,1-.025.075Zm10.172,9.8a.464.464,0,1,1-.025.075Zm0-1.658a.713.713,0,1,0,.721.713.721.721,0,0,0-.746-.613Zm-4.1,6.425a.92.92,0,1,1,.656-.267.928.928,0,0,1-.656.267Zm0-1.658a.721.721,0,1,0,.721.721.721.721,0,0,0-.721-.721Zm6.541,11.407a.386.386,0,1,1,0,.025Zm0-1.658a.693.693,0,1,1,0,.041Zm8.074,8.489a.928.928,0,1,1,.928-.928A.928.928,0,0,1,256.157,199.613Zm0-1.658a.721.721,0,1,0,.721.713A.721.721,0,0,0,256.157,197.955Zm7.892,8.6a.383.383,0,1,1,0,.008Zm0-1.658a.709.709,0,1,1,0,.025Zm-27.78-18.362a.928.928,0,1,1,.92-.92A.928.928,0,0,1,236.269,186.54Zm0-1.658a.713.713,0,1,1,0,.017Zm5.8,10.91a.536.536,0,1,1-.008.017Zm0-1.658a.583.583,0,1,1-.008.033Zm-8.29,11.283a.908.908,0,1,1,.025,0Zm0-1.658a1.512,1.512,0,1,1,.025.05Zm-4.543,5.529a.363.363,0,1,1,.025.05Zm0-1.658a1.044,1.044,0,1,1,.025.075Zm-7.892,8.779a.364.364,0,1,1,.025.075Zm0-1.658a.95.95,0,1,1,.025.091Zm3.374-2.089a.372.372,0,1,1,.025.091Zm0-1.658a.862.862,0,1,1,.025.108Zm.406-5.8a.368.368,0,1,1,.025.083Zm0-1.658a.907.907,0,1,1,.025.1Zm9.475,15.419a.371.371,0,1,1,.025.1Zm0-1.658a.721.721,0,1,0,.713.721.713.713,0,0,0-.688-.605Zm-9.061,2.487a.369.369,0,1,1,.025.091Zm0-1.658a.721.721,0,1,0,.713.721.713.713,0,0,0-.688-.613Zm-7.759,8.754a.928.928,0,1,1,.92-.928.928.928,0,0,1-.92.928Zm0-1.658a.7.7,0,1,1,0,.017Zm7.345,1.658a.916.916,0,1,1,.025,0Zm0-1.658a2.582,2.582,0,1,0,.025.017Zm-8.514,8.9a.663.663,0,1,1,.025.017Zm0-1.658a.721.721,0,1,0,.713.713.713.713,0,0,0-.688-.68Zm8.514,1.658a.667.667,0,1,1,.025.017Zm0-1.658a3.31,3.31,0,1,1,.025.033Zm-8.986,8.9a.368.368,0,1,1,.025.033Zm0-1.658a.721.721,0,1,0,.713.721.713.713,0,0,0-.688-.672Zm5.712-30.8a.364.364,0,1,1,.025.05Zm0-1.658a1.133,1.133,0,1,1,.025.066Zm7.154-5.463a.364.364,0,1,1,.025.066Zm0-1.658a.984.984,0,1,1,.025.083Zm-1.9-6.9a.366.366,0,1,1,.025.083Zm0-1.658a.91.91,0,1,1,.025.1Zm1.368-11.705a.371.371,0,1,1,.025.1Zm0-1.658a.721.721,0,1,0,.713.721.713.713,0,0,0-.688-.605Zm18.76-7.345a.376.376,0,1,1,.025.116Zm0-1.658a.721.721,0,1,0,.713.721.713.713,0,0,0-.688-.589Zm9.119,2.843a.4.4,0,1,1,0,.133Zm0-1.658a.632.632,0,1,1,0,.191Zm-3.7,18.238a.393.393,0,1,1,0,.108Zm0-1.658a.661.661,0,1,1,0,.124Zm-5.4,12.626a.92.92,0,1,1,.654-.272A.928.928,0,0,1,247.262,199.613Zm0-1.658a.721.721,0,1,0,.713.713A.713.713,0,0,0,247.262,197.955Zm-13.024,13.72a.381.381,0,1,1,0,.008Zm0-1.658a.713.713,0,1,0,.713.713.7.7,0,0,0-.713-.68Zm4.634,5.2a.384.384,0,1,1,0,.033Zm0-1.658a.713.713,0,1,0,.713.713.7.7,0,0,0-.713-.655Zm17.865,1.409a.371.371,0,1,1,.008.058Zm0-1.658a.713.713,0,1,0,.713.713.7.7,0,0,0-.7-.63Zm9.567,7.146a.39.39,0,1,1,0,.083Zm0-1.658a.661.661,0,1,1,0,.108Zm-2.6,12.767a.395.395,0,1,1,0,.108Zm0-1.658a.662.662,0,1,1,0,.124Zm1.658,8.29a.425.425,0,1,1-.017.091Zm0-1.658a.591.591,0,1,1-.017.116Zm6.881,12.112a.421.421,0,1,1-.017.116Zm0-1.658a.591.591,0,1,1-.017.133Zm-5.546-.953a.92.92,0,1,1,.92-.92A.92.92,0,0,1,266.693,246.037Zm0-1.658a.713.713,0,1,0,.713.713.713.713,0,0,0-.713-.713Zm2.487-10.719a.916.916,0,1,0,0-.008Zm0-1.658a.714.714,0,1,1,0,.008Zm-18.321,12.377a.928.928,0,1,1,.92-.928.928.928,0,0,1-.92.928Zm0-1.658a.721.721,0,1,0,.713.713.721.721,0,0,0-.713-.713Zm-10.222,8.845a.382.382,0,1,1,0,.008Zm0-1.658a.713.713,0,1,0,.713.713.721.721,0,0,0-.713-.68Zm5.33,5.248a.92.92,0,1,1,.656-.267A.928.928,0,0,1,245.968,255.156Zm0-1.658a.721.721,0,1,0,.721.721A.721.721,0,0,0,245.968,253.5Zm.141,9.069a1.428,1.428,0,1,0,.008-.025Zm0-1.658a.507.507,0,1,0,.008-.008Zm-5.48-16.157a182.276,182.276,0,1,1,.008-.008Zm0-1.658a180.575,180.575,0,1,0,.008.008Zm7.121-27.854a.651.651,0,1,1,.008.008Zm0-1.658a.952.952,0,1,1,.008.033Zm.829,9.351a.387.387,0,1,1,0,.033Zm0-1.658a.689.689,0,1,1,0,.05Zm.323,8.7a.386.386,0,1,1,0,.05Zm0-1.658a.688.688,0,1,1,0,.066Zm-1.658-21.056a.365.365,0,1,1,.017.066Zm0-1.658a.721.721,0,1,0,.713.721.713.713,0,0,0-.7-.638Zm-3.565,5.679a.374.374,0,1,1,.017.083Zm0-1.658a.8.8,0,1,1,.017.1Zm-.2,9.741a.928.928,0,1,1,.92-.92A.928.928,0,0,1,243.481,219.368Zm0-1.658a.714.714,0,1,1,0,.017Zm-13.4,5.579a.386.386,0,1,1,0,.017Zm0-1.658a.7.7,0,1,1,0,.033Zm4.974,12.485a.387.387,0,1,1,0,.033Zm0-1.658a.721.721,0,1,0,.713.713.713.713,0,0,0-.713-.663Zm-10.313,8.721a.928.928,0,1,1,.928-.928A.928.928,0,0,1,224.746,241.179Zm0-1.658a.7.7,0,1,1,0,.017Zm15.071-1.459a.385.385,0,1,1,0,.017Zm0-1.658a.7.7,0,1,1,0,.033Zm5.073,4.974a.384.384,0,1,1,0,.033Zm0-1.658a.721.721,0,1,0,.713.721.713.713,0,0,0-.713-.671Zm-10.263,8.174a.388.388,0,1,1,0,.05Zm0-1.658a.721.721,0,1,0,.713.713.713.713,0,0,0-.713-.647Zm0,8.812a.394.394,0,1,1,0,.108Zm0-1.658a.721.721,0,1,0,.713.721.713.713,0,0,0-.713-.613Zm6.01,5.753a.392.392,0,1,1,0,.083Zm0-1.658a.665.665,0,1,1,0,.1ZM221.1,230.85a.928.928,0,1,1,.92-.92A.928.928,0,0,1,221.1,230.85Zm0-1.658a.713.713,0,1,1,0,.017Zm-.522,8.356a.92.92,0,1,1,.92-.92A.92.92,0,0,1,220.576,237.548Zm0-1.658a.514.514,0,1,1-.025.041Zm23.519-9.293a.583.583,0,1,1-.025.041Zm0-1.658a.533.533,0,1,1-.025.058Zm-3.929,5.5a.92.92,0,1,1,.92-.92.92.92,0,0,1-.92.92Zm0-1.658a.7.7,0,1,1,0,.025Zm-5.248,12.6a.385.385,0,1,1,0,.025Zm0-1.658a.7.7,0,1,1,0,.041Zm-9.558,8.174a.389.389,0,1,1,0,.041Zm0-1.658a.685.685,0,1,1,0,.058Zm-.207,9.384a.388.388,0,1,1,0,.058Zm0-1.658a.673.673,0,1,1,0,.083Zm4.535-2.835a.39.39,0,1,1,0,.083Zm0-1.658a.673.673,0,1,1,0,.1Zm.978,10.039a.394.394,0,1,1,0,.1Zm0-1.658a.666.666,0,1,1,0,.116Zm-17.243-13.264a.4.4,0,1,1,0,.149Zm0-1.658a.636.636,0,1,1,0,.166Zm36.617-5.231a.871.871,0,1,1,0,.166Zm0-1.658a.629.629,0,1,1,0,.182Zm5.5,4.145a.405.405,0,1,1,0,.166Zm0-1.658a.628.628,0,1,1,0,.182Zm-8.6,9.467a.406.406,0,1,1,0,.182Zm0-1.658a.721.721,0,1,0,.713.721.713.713,0,0,0-.713-.522Zm10.86,7.934a.412.412,0,1,1,0,.2Zm0-1.658a.615.615,0,1,1,0,.216Zm-.829-5.471a.411.411,0,1,1,.008.216Zm0-1.658a.623.623,0,1,1,.008.24Zm-.622-90.361a.417.417,0,1,1,.008.249Zm0-1.658a.617.617,0,1,1,.008.265Zm-15.436,13.662a.8.8,0,1,1,.008.265Zm0-1.658a.6.6,0,1,1,.008.282Zm10.926,15.9a.92.92,0,1,1,.92-.92A.92.92,0,0,1,251.838,181.375Zm0-1.658a.689.689,0,1,1,0,.05Zm-9.774,10.114a.928.928,0,1,1,.92-.928.928.928,0,0,1-.92.928Zm0-1.658a.7.7,0,1,1,0,.017Zm14.549-4.145a.388.388,0,1,1,0,.041Zm0-1.658a.685.685,0,1,1,0,.058Zm1.185,10.379a.389.389,0,1,1,0,.058Zm0-1.658a.677.677,0,1,1,0,.075Zm-20.12,9.351a.928.928,0,1,1,.928-.928.929.929,0,0,1-.928.928Zm0-1.658a.721.721,0,1,0,.721.713A.721.721,0,0,0,237.678,198.784Zm23.784-1.335a.908.908,0,1,1,.025,0Zm0-1.658a2.493,2.493,0,1,0,.025.017Zm-23.784-17.45a.92.92,0,1,1,.656-.267A.92.92,0,0,1,237.678,178.341Zm0-1.658a.713.713,0,1,0,.721.713.721.721,0,0,0-.721-.688Zm-9.2,9.011a.651.651,0,1,1,.025.025Zm0-1.658a.713.713,0,1,0,.713.713.7.7,0,0,0-.688-.663ZM257.151,162.9a.36.36,0,1,1,.025.05Zm0-1.658a1.163,1.163,0,1,1,.025.066Zm-5.6,14.168a.362.362,0,1,1,.025.066Zm0-1.658a.713.713,0,1,0,.713.713.7.7,0,0,0-.688-.622Zm-23.983-17.077a.369.369,0,1,1,.025.091Zm0-1.658a.721.721,0,1,0,.713.721.713.713,0,0,0-.688-.613Zm13.654,19.067a.375.375,0,1,1,.025.108Zm0-1.658a.816.816,0,1,1,.025.124Zm5.2,12.9a.38.38,0,1,1,.025.124Zm0-1.658a.721.721,0,1,0,.713.713.713.713,0,0,0-.688-.572Zm5.4,12.518a.375.375,0,1,1,.025.116Zm0-1.658a.739.739,0,1,1,.025.166Zm8.547,8.29a.393.393,0,1,1,.025.174Zm0-1.658a.718.718,0,1,1,.025.191Zm5.5,13.272a.92.92,0,1,1,.92-.92A.92.92,0,0,1,265.864,214.427Zm0-1.658a.7.7,0,1,1,0,.025Zm-14.292-8.986a.383.383,0,1,1,0,.025Zm0-1.658a.721.721,0,1,0,.713.721.713.713,0,0,0-.713-.68Zm.829,9.2a.429.429,0,1,1-.008.041Zm0-1.658a.609.609,0,1,1-.008.058Zm8.29,1.136a.5.5,0,1,1-.025.058Zm0-1.658a.551.551,0,1,1-.025.083Zm-8.008,9.318a.455.455,0,1,1-.025.083Zm0-1.658a.563.563,0,1,1-.025.108ZM238.9,223.2a.44.44,0,1,1-.025.108Zm0-1.658a.721.721,0,1,0,.713.713.713.713,0,0,0-.738-.589Zm-9.019,9.185a.431.431,0,1,1-.025.124Zm0-1.658a.575.575,0,1,1-.025.141Zm0,8.762a.431.431,0,1,1-.025.141Zm0-1.658a.571.571,0,1,1-.025.158Zm-.348,8.041a.429.429,0,1,1-.025.166Zm0-1.658a.571.571,0,1,1-.025.166Zm-13.106,5.712a.426.426,0,1,1-.025.174Zm0-1.658a.576.576,0,1,1-.025.191Zm.589,8.887a.463.463,0,1,1-.058.191Zm0-1.658a.529.529,0,1,1-.058.216Zm3.258-9.459a.928.928,0,1,1,.92-.928.928.928,0,0,1-.92.928Zm0-1.658a.721.721,0,1,0,.713.713A.721.721,0,0,0,220.269,242.721Zm-7.461,9.989a.383.383,0,1,1,0,.008Zm0-1.658a.708.708,0,1,1,0,.025Zm8.381.34a.356.356,0,1,1,.008.025Zm0-1.658a.721.721,0,1,0,.713.721.713.713,0,0,0-.7-.68Zm36.6-28.111a.364.364,0,1,1,.008.041Zm0-1.658a.812.812,0,1,1,.008.058Zm10.139,7.171a.374.374,0,1,1,.008.058Zm0-1.658a.76.76,0,1,1,.008.075Zm-9.318,3.656a.376.376,0,1,1,.008.075Zm0-1.658a.713.713,0,1,0,.713.713.7.7,0,0,0-.7-.613Zm-4.584-1.2a.385.385,0,1,1,.008.1Zm0-1.658a.7.7,0,1,1,.008.116Zm-9.119,9.417a.421.421,0,1,1-.017.116Zm0-1.658a.721.721,0,1,0,.713.713.713.713,0,0,0-.73-.58Zm16.97-14.425a.42.42,0,1,1-.017.133Zm0-1.658a.721.721,0,1,0,.713.713.713.713,0,0,0-.729-.564Zm1.028,8.555a.417.417,0,1,1-.017.149Zm0-1.658a.6.6,0,1,1-.017.166Zm-8.854,9.948a.419.419,0,1,1-.017.191Zm0-1.658a.589.589,0,1,1-.017.207Zm7.005,11.125a.92.92,0,1,1,.92-.92A.92.92,0,0,1,261.056,242.6Zm0-1.658a.578.578,0,1,1-.017.232Zm-9.2,10.736a.428.428,0,1,1-.017.232Zm0-1.658a.574.574,0,1,1-.017.249Zm11.863,7.312a.431.431,0,1,1-.017.249Zm0-1.658a.568.568,0,1,1-.017.307Zm-12.02,3a.434.434,0,1,1-.017.265Zm0-1.658a.567.567,0,1,1-.017.282Zm7.967-21.4a.436.436,0,1,1-.017.282Zm0-1.658a.713.713,0,1,0,.713.713.721.721,0,0,0-.73-.406Zm11.175,7.212a.928.928,0,1,1,.928-.928.928.928,0,0,1-.928.928Zm0-1.658a.7.7,0,1,1,0,.017Zm-8.116,10.86a27.442,27.442,0,1,1-.041.017Zm0-1.658a.291.291,0,1,1-.041.041Zm5.662,4.783a4.688,4.688,0,1,1-.033.041Zm0-1.658a.713.713,0,1,0,.713.713.7.7,0,0,0-.746-.647Zm-6.856-64.554a.586.586,0,1,1-.041.066Zm0-1.658a.522.522,0,1,1-.041.083Zm-9.948-18.644a.406.406,0,1,1-.008.083Zm0-1.658a.721.721,0,1,0,.713.721.713.713,0,0,0-.721-.622Zm6.673,13.339a.406.406,0,1,1-.008.1Zm0-1.658a.627.627,0,1,1-.008.116Zm1.6-25.483a.928.928,0,1,1,.92-.928A.928.928,0,0,1,259.854,151.531Zm0-1.658a.721.721,0,1,0,.713.713A.713.713,0,0,0,259.854,149.873ZM229.5,168.194a.386.386,0,1,1,0,.025Zm0-1.658a.693.693,0,1,1,0,.041Zm-2.371,7.262a.388.388,0,1,1,0,.041Zm0-1.658a.684.684,0,1,1,0,.058Zm3.009-21.04a.387.387,0,1,1,0,.058Zm0-1.658a.673.673,0,1,1,0,.083Z" transform="translate(-167.371 -73.366)" fill="#fff"/>
      <path id="Path_369" data-name="Path 369" d="M250.022,200.16c-3.9.1-7.693,1.136-11.606,1.318a25.375,25.375,0,0,1-5.14-.216,17.972,17.972,0,0,1-4.974-1.583c-.066,0,0-.141.058-.108,3.125,1.6,6.939,1.559,10.346,1.235a85.389,85.389,0,0,1,11.258-.754.061.061,0,0,1,.058.108Zm13.264-.92c-3.192,1.442-6.831,1.55-10.28,1.658-1.857.058-3.722.041-5.579.166a50.626,50.626,0,0,0-5.471.7c-.075,0,0,.133,0,.116a24.4,24.4,0,0,1,5.919-.381c1.874,0,3.747.141,5.629.108a20.468,20.468,0,0,0,9.84-2.321s0-.066,0-.05Zm-31.411,35.954c-.713,4.145-1.708,8.29-2.487,12.435s-1.517,8.356-2.122,12.551c-.34,2.371-.721,4.742-1.036,7.113,0,.066.083.091.091,0,1.824-8.24,3.316-16.58,4.584-24.92.348-2.379.638-4.783,1.061-7.154a.058.058,0,0,0-.066-.025Zm.978,11.473c-.133,1.865-.39,3.706-.572,5.554s-.365,3.573-.522,5.364-.29,3.54-.4,5.314-.066,3.639,0,5.463c0,.075.116.066.116,0,.124-1.824.373-3.639.522-5.471s.29-3.54.406-5.314.2-3.565.3-5.355.124-3.7.282-5.546c.017-.083-.108-.083-.108-.008Zm31.319,15.278c-.265-1.658-.613-3.316-.945-4.974-.663-3.316-1.418-6.632-2.18-9.882-.431-1.832-.829-3.681-1.177-5.529,0-.075-.133-.041-.116,0,1.326,6.549,2.189,13.181,3.623,19.705.2.928.431,1.857.663,2.777s.406,1.865.688,2.777c0,.091.191.075.182,0A48.355,48.355,0,0,0,264.173,261.945Z" transform="translate(-169.825 -74.506)" fill="#fff"/>
    </g>
    <g id="freepik--Box--inject-19" transform="translate(283.905 369.168)">
      <rect id="Rectangle_53" data-name="Rectangle 53" width="74.402" height="52.824" transform="translate(8.157)" fill="#37474f"/>
      <rect id="Rectangle_54" data-name="Rectangle 54" width="25.334" height="52.824" transform="translate(33.491 52.824) rotate(180)" fill="#263238"/>
      <path id="Path_370" data-name="Path 370" d="M307.2,408.605q2.827-5.637,5.579-11.3l5.5-11.366,5.422-11.415q2.711-5.712,5.347-11.465-2.81,5.629-5.579,11.308l-5.5,11.357-5.422,11.415Q309.853,402.885,307.2,408.605Z" transform="translate(-297.294 -359.454)" fill="#37474f"/>
      <path id="Path_371" data-name="Path 371" d="M307.2,363.1q2.645,5.745,5.347,11.465l5.422,11.415,5.5,11.366q2.761,5.67,5.579,11.3Q326.4,402.9,323.7,397.18l-5.422-11.415-5.5-11.357Q310.019,368.729,307.2,363.1Z" transform="translate(-297.294 -359.461)" fill="#37474f"/>
      <path id="Path_372" data-name="Path 372" d="M392.886,370.5h-49.06L335.66,358.71h49.06Z" transform="translate(-302.16 -358.71)" fill="#455a64"/>
      <path id="Path_373" data-name="Path 373" d="M320.576,370.5H295.25l8.166-11.788H328.75Z" transform="translate(-295.25 -358.71)" fill="#455a64"/>
    </g>
    <g id="freepik--Bag--inject-19" transform="translate(347.619 331.108)">
      <path id="Path_374" data-name="Path 374" d="M361.12,414.692h77.851l-11.357-79.3H372.469Z" transform="translate(-361.12 -316.662)" fill="#ca516b"/>
      <path id="Path_375" data-name="Path 375" d="M372.469,335.39l8.655,79.31h-20Z" transform="translate(-361.12 -316.662)" fill="#263238" opacity="0.1"/>
      <path id="Path_376" data-name="Path 376" d="M417.148,337.081c0-.066-1.418-6.715-2.926-13.421-1.252-5.6-6.814-8.174-11.457-7.42-1.658.265-6.947,1.658-6.259,8.514.829,7.875,1.4,11.681,1.409,11.722l-3.316.531c0-.158-.63-3.929-1.434-11.921-.638-6.375,2.91-11.125,9.028-12.12s13.546,2.487,15.229,9.948c1.509,6.723,2.918,13.388,2.926,13.455Z" transform="translate(-366.587 -312.799)" fill="#263238"/>
      <path id="Path_377" data-name="Path 377" d="M380.264,429.039c-1.766-.829-3.49-1.782-5.214-2.711l-2.553-1.434c-.829-.489-1.716-.953-2.553-1.459h.332c-1.343.953-2.653,1.94-4.021,2.868s-2.711,1.865-4.1,2.744c1.252-1.069,2.545-2.1,3.838-3.109s2.62-1.99,3.929-2.993l.149-.116.182.1c.829.473,1.658.987,2.537,1.476l2.487,1.5C376.948,426.917,378.606,427.945,380.264,429.039Z" transform="translate(-361.296 -331.615)" fill="#fff"/>
      <path id="Path_378" data-name="Path 378" d="M371.71,410.717l.108-7.6.174-7.594.448-15.2.589-15.187.34-7.585.415-7.594-.108,7.6-.174,7.594-.439,15.2-.589,15.187-.348,7.585Z" transform="translate(-362.931 -319.154)" fill="#fff"/>
      <path id="Path_379" data-name="Path 379" d="M420.08,341a3.316,3.316,0,1,0,3.316-3.316A3.316,3.316,0,0,0,420.08,341Z" transform="translate(-371.202 -317.054)" fill="#263238"/>
      <path id="Path_380" data-name="Path 380" d="M393.25,341a3.316,3.316,0,1,0,3.316-3.316A3.316,3.316,0,0,0,393.25,341Z" transform="translate(-366.614 -317.054)" fill="#263238"/>
    </g>
    <g id="freepik--Chair--inject-19" transform="translate(124.46 348.691)">
      <rect id="Rectangle_55" data-name="Rectangle 55" width="48.77" height="15.113" transform="translate(3.208)" fill="#37474f"/>
      <path id="Path_381" data-name="Path 381" d="M146.213,352.24,144.679,362l-10.537,62.821H130.52L136.058,362l.854-9.757Z" transform="translate(-130.52 -337.127)" fill="#37474f"/>
      <path id="Path_382" data-name="Path 382" d="M138.054,352.24h9.3L145.822,362H137.2Z" transform="translate(-131.662 -337.127)" fill="#263238"/>
      <path id="Path_383" data-name="Path 383" d="M193.853,424.819H190.23L179.694,362l-1.534-9.757h9.3l.854,9.757Z" transform="translate(-138.667 -337.127)" fill="#37474f"/>
      <path id="Path_384" data-name="Path 384" d="M188.315,362h-8.622l-1.534-9.757h9.3Z" transform="translate(-138.667 -337.127)" fill="#263238"/>
    </g>
    <g id="freepik--Character--inject-19" transform="translate(23.212 244.717)">
      <path id="Path_385" data-name="Path 385" d="M96.621,433c1.658.564,50.751.58,52.575-.572.216-.133.2-6.1.348-10.644.216-6.947-9.119-37.868-9.119-37.868L109.968,385.4l8.489,31.162s-7.013,3.109-12.8,5.8h0a69.633,69.633,0,0,0-7.378,3.755C96.447,427.641,94.955,432.441,96.621,433Z" transform="translate(-35.828 -238.571)" fill="#ad6359"/>
      <path id="Path_386" data-name="Path 386" d="M96.621,440.816c1.658.564,50.751.58,52.575-.572.216-.133.315-4.568.348-10.644-12.17,2.487-44.55,6.392-45.462,3.83-.356-1.011.431-2.164,1.6-3.208a69.64,69.64,0,0,0-7.378,3.755C96.447,435.453,94.955,440.253,96.621,440.816Z" transform="translate(-35.828 -246.382)" fill="#263238"/>
      <path id="Path_387" data-name="Path 387" d="M170.291,319.308c-6.01,5.977-14.383,9.749-21.5,13.421-6.126,3.15-11.316,6.226-13.264,10.545-1.724,3.813,11.316,41.126,11.316,41.126L113.4,392.409s-15.113-41.243-11.332-58.975c.613-2.91,3.523-6.682,7.693-10.777,14.847-14.665,45.595-33.707,45.595-33.707h18.909S182.121,307.544,170.291,319.308Z" transform="translate(-36.779 -222.33)" fill="#ca516b"/>
      <path id="Path_388" data-name="Path 388" d="M178.422,293.341c-.075-.829-.158-1.716-.249-2.57a.066.066,0,1,0-.124,0c.779,6.881,1.426,14.433-1.816,20.833-3.125,6.151-9.384,9.848-14.922,13.529l-10.13,6.69-5.065,3.316a48.829,48.829,0,0,0-4.029,2.835,11.714,11.714,0,0,0-2.935,3.316,8.365,8.365,0,0,0-.97,4.742c.829,11.075,10.661,36.725,10.918,37.678.066.232.448.116.365-.116-2.379-7.386-7.668-20.145-10.545-34.967a11.921,11.921,0,0,1-.041-5.8,9.069,9.069,0,0,1,2.636-3.888,28.283,28.283,0,0,1,3.755-2.819l5.156-3.407,10.039-6.632c5.488-3.623,11.672-7.146,15.237-12.883C179.392,307.269,179.036,300.065,178.422,293.341Z" transform="translate(-43.053 -222.627)" fill="#455a64"/>
      <path id="Path_389" data-name="Path 389" d="M172,319.3c-6.01,5.977-14.383,9.749-21.5,13.421-12.6-3.316-28.5-7.461-39.029-10.089,14.847-14.665,45.595-33.707,45.595-33.707h18.909S183.833,307.541,172,319.3Z" transform="translate(-38.491 -222.327)" fill="#263238"/>
      <path id="Path_390" data-name="Path 390" d="M24.393,421.452c1.733.34,50.37-6.234,52.019-7.627.2-.157-.3-4.559-1.086-10.595l8.622-36.741-32.032,3.929L41.835,401.988a77.644,77.644,0,0,1-9.873,7.734h0a70.26,70.26,0,0,0-6.806,4.717C23.5,416.163,22.669,421.121,24.393,421.452Z" transform="translate(-23.437 -235.59)" fill="#ad6359"/>
      <path id="Path_391" data-name="Path 391" d="M24.393,429.031c1.733.34,50.37-6.234,52.019-7.627.2-.157-.3-4.559-1.086-10.595-11.714,4.145-43.29,12.319-44.534,9.906-.489-.962.133-2.205,1.152-3.4a70.258,70.258,0,0,0-6.806,4.717C23.5,423.742,22.669,428.7,24.393,429.031Z" transform="translate(-23.437 -243.169)" fill="#263238"/>
      <path id="Path_392" data-name="Path 392" d="M47.2,377.8l34.345,6.184,10.719-39.46c.937-13.032,3.316-19.357,10.959-21.736,13.057-4.046,44.965,10.893,59.406.87C174.36,315.522,165,288.92,165,288.92H131.086s-4.1,4.974-4.858,7.917c0,0-42.013-3.241-51.4,8.68C62.221,321.491,47.2,377.8,47.2,377.8Z" transform="translate(-27.501 -222.325)" fill="#ca516b"/>
      <path id="Path_393" data-name="Path 393" d="M118.4,329.055a18.239,18.239,0,0,0-6.027.464,13.811,13.811,0,0,0-5.14,2.62,12.932,12.932,0,0,0-3.457,4.369,21.919,21.919,0,0,0-1.658,6.375c-.191,1.268-.307,2.545-.381,3.83s-.124,3.067-.124,4.145a.067.067,0,1,0,.133,0,26.125,26.125,0,0,1,.282-3.44c.149-1.078.332-2.155.522-3.225a36.552,36.552,0,0,1,1.492-6.309,13.637,13.637,0,0,1,7.61-7.817,14.091,14.091,0,0,1,3.316-.887,22.538,22.538,0,0,1,3.424-.108S118.422,329.055,118.4,329.055Z" transform="translate(-36.805 -229.176)" fill="#263238"/>
      <path id="Path_394" data-name="Path 394" d="M178.822,302.462a14.707,14.707,0,0,1-3.4-1.219,9.567,9.567,0,0,1-2.885-2.023,6.375,6.375,0,0,1-1.219-2.8c-.141-.547-.216-1.111-.307-1.658s-.249-1.219-.29-1.832c0-.075-.141-.075-.133,0,.29,2.313-.365,4.9,1.368,6.872a8.29,8.29,0,0,0,3.134,2.014,10.859,10.859,0,0,0,3.7.9.13.13,0,1,0,.033-.257Z" transform="translate(-48.601 -223.001)" fill="#263238"/>
      <path id="Path_395" data-name="Path 395" d="M170.392,297.228c-.307-1.252-.671-2.487-1.078-3.706a.066.066,0,0,0-.124.041,44.268,44.268,0,0,1,2.155,15.751,30.268,30.268,0,0,1-1.02,7.461,9.227,9.227,0,0,1-4.2,5.554,20.327,20.327,0,0,1-6.864,2.139,47.593,47.593,0,0,1-8.124.572,153.215,153.215,0,0,1-16.538-1.476c-5.314-.622-10.636-1.36-15.966-1.84-4.369-.39-9.019-.439-13.065,1.5-3.847,1.849-6.342,5.372-7.983,9.21-1.849,4.336-2.893,9-4.145,13.529-1.484,5.4-9.119,34.818-9.276,36.086,0,.124.182.116.191,0,.274-2.769,6.906-27.108,8.4-32.538q1.127-4.079,2.247-8.149c.6-2.172,1.185-4.344,1.932-6.466,1.426-4.054,3.507-8.124,7.2-10.537,3.938-2.586,8.845-2.777,13.4-2.487,2.562.182,5.115.522,7.668.829l8.431,1.053c5.364.63,10.777,1.384,16.132,1.55a52.724,52.724,0,0,0,8.091-.323,26.969,26.969,0,0,0,7.088-1.658,9.567,9.567,0,0,0,4.8-4.079,17.243,17.243,0,0,0,1.766-6.632,44.368,44.368,0,0,0-1.1-15.386Z" transform="translate(-33.821 -223.106)" fill="#263238"/>
      <path id="Path_396" data-name="Path 396" d="M132.631,210.82c-5.272,4.319-7.411,12.062-7.411,12.062s-5.38,7.461-4.51,11.913a7.892,7.892,0,0,0,4.485,5.8l-.232-2.429s1.252,3.208,6.3,4.974,12.037.829,15.751-.655a13.737,13.737,0,0,0,5.67-4.1l-1.658,3.316a10.28,10.28,0,0,0,8.522-4.734c3.5-5.049-4.319-13.546-4.883-15.262s-.323-13.853-13.189-13C141.477,208.7,136.262,207.844,132.631,210.82Z" transform="translate(-40.055 -208.588)" fill="#263238"/>
      <path id="Path_397" data-name="Path 397" d="M123.1,242.736a8.066,8.066,0,0,1-3-3.83,7.4,7.4,0,0,1-.348-4.816,16.638,16.638,0,0,1,2.893-5.115c1.2-1.658,2.487-3.183,3.7-4.833.058-.091-.075-.182-.149-.116a44.405,44.405,0,0,0-3.548,3.838,21.826,21.826,0,0,0-2.893,4.012,8.008,8.008,0,0,0-1.011,4.377,7.718,7.718,0,0,0,1.26,3.482,16.488,16.488,0,0,0,3.026,3.1C123.1,242.893,123.148,242.785,123.1,242.736Z" transform="translate(-39.732 -211.224)" fill="#263238"/>
      <path id="Path_398" data-name="Path 398" d="M167.367,232.489c-1.086-4.576-4.8-7.776-6.856-11.871-1.111-2.222-1.9-4.634-3.432-6.632,0-.05-.133,0-.091.075a29.322,29.322,0,0,1,2.694,5.8,32.448,32.448,0,0,0,3.258,5.587c2.222,3.25,4.883,7.1,3.9,11.258-.456,1.915-1.816,3.963-3.863,4.377a.058.058,0,1,0,0,.116,6.251,6.251,0,0,0,3.813-3.15,7.958,7.958,0,0,0,.572-5.563Z" transform="translate(-46.274 -209.508)" fill="#263238"/>
      <path id="Path_399" data-name="Path 399" d="M167.947,235.127a8.224,8.224,0,0,0-.638-4.916,11.722,11.722,0,0,0-3.316-3.722c-1.476-1.2-3.051-2.363-3.9-4.145,0-.066-.141,0-.108.066,1.326,2.91,4.236,4.485,6.068,7.005a8.455,8.455,0,0,1-.191,9.608,13.48,13.48,0,0,1-4.667,4.186v.05C164.424,241.594,167.35,238.833,167.947,235.127Z" transform="translate(-46.787 -210.936)" fill="#263238"/>
      <path id="Path_400" data-name="Path 400" d="M150.273,248.33c-2.827,11.5-10.3,26.163-16.34,26.088-5.521-.091-18.014-6.077-23.212-9.285s6.068-16.074,9.119-14.234c4.145,2.487,11.258,7.859,12.435,7.461,1.451-.464,2.885-2.769,11.133-13.264C146.824,240.845,151.483,243.431,150.273,248.33Z" transform="translate(-38.132 -214.464)" fill="#ad6359"/>
      <path id="Path_401" data-name="Path 401" d="M112.66,246.462c-2.487-.73-5.256-1.757-7.958-1.567s-4.75,3.888-4.692,4.908,1.418,7.337,4.145,7.187.829-4.974.887-5.513.133-1.293.647-1.268,9.658,3.78,9.658,3.78Z" transform="translate(-36.531 -214.793)" fill="#ad6359"/>
      <path id="Path_402" data-name="Path 402" d="M112.008,246.782c-.158,0-7.544-2.487-10.246-2.255s-4.75,3.88-4.692,4.9,1.418,7.337,4.145,7.2.829-4.974.887-5.521.133-1.285.647-1.26,9.658,3.772,9.658,3.772Z" transform="translate(-36.029 -214.731)" fill="#ad6359"/>
      <path id="Path_403" data-name="Path 403" d="M103.071,257.294a3.241,3.241,0,0,0,.365-1.617,5.8,5.8,0,0,0-.191-1.724,8.945,8.945,0,0,1-.406-1.467,2.9,2.9,0,0,1,.3-1.442c.182-.39.589-.282.937-.182a12.358,12.358,0,0,1,1.509.589c.531.224,1.053.464,1.575.7a13.773,13.773,0,0,1,1.658.771s0,.091,0,.083a14.555,14.555,0,0,1-1.409-.547c-.522-.216-1.053-.423-1.583-.622s-.978-.406-1.476-.589c-.174-.066-.531-.232-.721-.174s-.282.572-.315.738a2.562,2.562,0,0,0,.166,1.451,7.6,7.6,0,0,1,.365,1.467,4.07,4.07,0,0,1,0,1.418,5.67,5.67,0,0,1-.58,1.194C103.129,257.4,103.038,257.344,103.071,257.294Z" transform="translate(-37.015 -215.801)" fill="#263238"/>
      <path id="Path_404" data-name="Path 404" d="M119.879,252.153s-7.859-6.416-9.492-7.693c-3.266-2.545-16.729-7.221-18.57-7.32s-2.313,3.706,6.839,7.138c4.816,1.807,5.8,4.46,5.8,5.96s-1.285,4.361-3.805,4.427-4.344-3.515-6.682-3.8-.58,3.863,1.185,6.226a15.386,15.386,0,0,0,7.046,4.916c2.222.7,9.119,3.241,9.119,3.241Z" transform="translate(-34.946 -213.47)" fill="#ad6359"/>
      <path id="Path_405" data-name="Path 405" d="M98.784,254.526c.987.68,2.114,1.575,3.316,1.55a3.017,3.017,0,0,0,2.628-1.981,4.775,4.775,0,0,0,.473-3.515,5.894,5.894,0,0,0-1.874-2.727,14.4,14.4,0,0,0-3.532-2.081c-.058,0,0-.108.05-.083,1.185.456,4.858,1.733,5.753,4.874a4.883,4.883,0,0,1-.514,3.581,3.49,3.49,0,0,1-2.487,2.205c-1.476.2-2.819-.945-3.938-1.782C98.66,254.526,98.735,254.493,98.784,254.526Z" transform="translate(-36.301 -214.932)" fill="#263238"/>
      <path id="Path_406" data-name="Path 406" d="M155.885,250.5a51.49,51.49,0,0,1-4.278,13.355c-.423.829-.688,1.277-.688,1.277l-10.827-8.539-1.492-1.177s.2-.307.829-1.144c.945-1.185,2.835-3.424,6.433-7.32a22.1,22.1,0,0,1,5.447-4.6C155.553,240.12,157.169,243.527,155.885,250.5Z" transform="translate(-43.131 -214.246)" fill="#ebebeb"/>
      <path id="Path_407" data-name="Path 407" d="M152.124,267.26l-2.487,3.963L137.5,261.5l-2.711-2.155c.307-.29,3.25-3.183,3.25-3.183l.771.613,1.525,1.2,10.619,8.381Z" transform="translate(-42.479 -216.723)" fill="#ebebeb"/>
      <path id="Path_408" data-name="Path 408" d="M155.792,250.5a51.489,51.489,0,0,1-4.278,13.355l1.169.928-2.487,3.963-12.136-9.724,1.94-2.429.9-1.119c4-5.032,7.975-10.056,10.354-13.123C155.461,240.12,157.077,243.527,155.792,250.5Z" transform="translate(-43.038 -214.246)" fill="#263238"/>
      <path id="Path_409" data-name="Path 409" d="M141.085,289.109s14.88,2.3,42.345-2.3c0,0-13.571-33.657-23.021-42.279-4.3-3.913-8.124-2.96-11.191,0-.763.746-9.89,14.449-10.4,19.009-.439,4.029,3.142,8.182,3.142,8.182Z" transform="translate(-43.162 -214.291)" fill="#37474f"/>
      <path id="Path_410" data-name="Path 410" d="M156.659,241c0,.763-2.164,6.375-5.5,7.1-1.086.232-2.636-5.645-2.636-5.645l-.216-.406-2.993-5.712,5.911-6.5.829-.879s.721,1.617,1.592,3.639l.124.282c.05.116.1.224.141.332.133.3.274.605.4.912s.2.464.29.713.2.5.3.746A41.08,41.08,0,0,1,156.659,241Z" transform="translate(-44.278 -212.072)" fill="#ad6359"/>
      <path id="Path_411" data-name="Path 411" d="M153.645,232.6a12.982,12.982,0,0,1-5.372,9.451l-2.993-5.712,5.911-6.5.829-.879S152.774,230.577,153.645,232.6Z" transform="translate(-44.273 -212.072)" fill="#263238"/>
      <path id="Path_412" data-name="Path 412" d="M131.892,225.553c1.268,11.249,8.149,11.755,10.57,11.482,2.205-.257,9.666-1.384,9.558-12.7s-5.728-14.284-10.777-13.969S130.624,214.311,131.892,225.553Z" transform="translate(-41.952 -208.888)" fill="#ad6359"/>
      <path id="Path_413" data-name="Path 413" d="M133.474,225.86c.257-.066.481-.174.738-.265a1.21,1.21,0,0,0,.7-.414.39.39,0,0,0-.066-.481.97.97,0,0,0-1-.1,1.451,1.451,0,0,0-.829.638.431.431,0,0,0,.464.622Z" transform="translate(-42.166 -211.31)" fill="#263238"/>
      <path id="Path_414" data-name="Path 414" d="M142.5,224.207a6.162,6.162,0,0,1-.779-.058,1.31,1.31,0,0,1-.788-.207.423.423,0,0,1-.066-.489,1.02,1.02,0,0,1,.945-.365,1.492,1.492,0,0,1,.987.39.431.431,0,0,1-.3.73Z" transform="translate(-43.51 -211.066)" fill="#263238"/>
      <path id="Path_415" data-name="Path 415" d="M141.148,228.46a.065.065,0,0,1,.066.066c.066.763.265,1.658.987,1.815v.041C141.339,230.358,141.09,229.2,141.148,228.46Z" transform="translate(-43.565 -211.986)" fill="#263238"/>
      <path id="Path_416" data-name="Path 416" d="M141.746,227.407c1.219-.232,1.592,2.222.464,2.437S140.726,227.6,141.746,227.407Z" transform="translate(-43.566 -211.804)" fill="#263238"/>
      <path id="Path_417" data-name="Path 417" d="M142.454,227.414c.232.108.481.323.746.307s.489-.307.647-.58h.05a.92.92,0,0,1-.522,1.127c-.456.133-.829-.24-1.036-.7C142.3,227.513,142.354,227.372,142.454,227.414Z" transform="translate(-43.768 -211.761)" fill="#263238"/>
      <path id="Path_418" data-name="Path 418" d="M135.894,229s-.058.05-.05.075c.149.763.182,1.658-.464,2.014v.041C136.234,230.915,136.168,229.73,135.894,229Z" transform="translate(-42.58 -212.079)" fill="#263238"/>
      <path id="Path_419" data-name="Path 419" d="M134.884,228.21c-1.243.108-.945,2.578.2,2.487S135.92,228.127,134.884,228.21Z" transform="translate(-42.357 -211.943)" fill="#263238"/>
      <path id="Path_420" data-name="Path 420" d="M134.187,228.477c-.182.158-.348.415-.58.464s-.5-.2-.7-.431h0c.05.473.257.945.721.978s.68-.406.738-.887C134.336,228.543,134.253,228.419,134.187,228.477Z" transform="translate(-42.158 -211.987)" fill="#263238"/>
      <path id="Path_421" data-name="Path 421" d="M142.112,236c-.141.216-.274.489-.547.572a1.948,1.948,0,0,1-.829,0s-.05,0,0,.05a1.028,1.028,0,0,0,1.036.216.829.829,0,0,0,.464-.829S142.136,236,142.112,236Z" transform="translate(-43.492 -213.276)" fill="#263238"/>
      <path id="Path_422" data-name="Path 422" d="M137.826,231.658s0,1.161.075,1.7c0,.05.141.058.323.041h0a2.562,2.562,0,0,0,2.346-1.293c0-.058-.041-.108-.091-.066a3.863,3.863,0,0,1-2.238.995c-.058-.141.066-1.99,0-1.981a4.484,4.484,0,0,0-1.177.439c-.075-2.412.24-4.825.133-7.237a.075.075,0,0,0-.149,0,39.691,39.691,0,0,0-.473,7.793C136.574,232.321,137.627,231.774,137.826,231.658Z" transform="translate(-42.779 -211.254)" fill="#263238"/>
      <path id="Path_423" data-name="Path 423" d="M138.62,234.778a3.2,3.2,0,0,0,1.326.9,1.426,1.426,0,0,0,.829,0c.613-.2.589-.771.448-1.252a3.614,3.614,0,0,0-.332-.721,4.046,4.046,0,0,1-2.271,1.078Z" transform="translate(-43.134 -212.882)" fill="#263238"/>
      <path id="Path_424" data-name="Path 424" d="M140.22,235.792a1.426,1.426,0,0,0,.829,0c.613-.2.589-.771.448-1.252A1.451,1.451,0,0,0,140.22,235.792Z" transform="translate(-43.408 -213.026)" fill="#ff9cbd"/>
      <path id="Path_425" data-name="Path 425" d="M151.239,225.108c-1.235,0-4.684-3.109-5.239-9.028,0,0,.829,5.281,1.326,6.027s-1.932-1.757-2.487-6.524a19.431,19.431,0,0,1-4.709,2.918c-2.205.829-3.59.887-3.764.738s3.067-1.451,3.888-2.553c0,0-5.8,3.25-8.539,3.672-.323,0-1.2-6.508,2.86-9.625s11.067-.622,13.024.995c0,0,2.164.141,4.725,3.125S152.566,225.083,151.239,225.108Z" transform="translate(-41.901 -208.7)" fill="#263238"/>
      <path id="Path_426" data-name="Path 426" d="M156.709,230.368a2.6,2.6,0,0,1-.481.24,1.931,1.931,0,0,1-.522.116,1.608,1.608,0,0,1-.68-.075,2.066,2.066,0,0,1-.489-.24,2.247,2.247,0,0,1-.547-.539v-3.084s1.724-3.954,3.465-3.407S158.417,229.315,156.709,230.368Z" transform="translate(-45.762 -211.109)" fill="#ad6359"/>
      <path id="Path_427" data-name="Path 427" d="M157.4,225.24v.05a4.816,4.816,0,0,0-1.857,3.465,1.053,1.053,0,0,1,1.492-.6v.075a1.185,1.185,0,0,0-1.194.655,5.745,5.745,0,0,0-.4,1.152c-.041.133-.257.108-.24,0h0C154.847,228.357,155.667,225.771,157.4,225.24Z" transform="translate(-45.956 -211.436)" fill="#263238"/>
      <path id="Path_428" data-name="Path 428" d="M156.55,236.393a.746.746,0,0,1-.539.415c-.431.066-1.252-.332-1.567-2.271a6.433,6.433,0,0,1,.174-2.777c.075-.224.133-.365.133-.381a.274.274,0,0,1,.356-.133.265.265,0,0,1,.133.348,3.432,3.432,0,0,0-.133.406,5.869,5.869,0,0,0-.133,2.487c.249,1.583.829,1.849.953,1.824s.108-.058.158-.141c.39-.713.166-2.91-.3-4.062a1.931,1.931,0,0,0,.522-.116C156.74,233.144,157.03,235.49,156.55,236.393Z" transform="translate(-45.827 -212.459)" fill="#1672a1"/>
      <path id="Path_429" data-name="Path 429" d="M151.237,252.941c-3.747,11.291-20.907,32.256-27.556,33.326C115.972,287.5,96.325,277.4,91.873,273c-1.766-1.766,10.014-13.156,12.352-11.863,9.79,5.405,18,7.6,19.473,6.9,2.263-1.078,12.294-10.835,18.876-17.409C150.848,242.272,152.928,247.876,151.237,252.941Z" transform="translate(-35.109 -215.046)" fill="#ad6359"/>
      <path id="Path_430" data-name="Path 430" d="M89.369,272.418A60,60,0,0,1,80,262.528a32.546,32.546,0,0,1-4.3-9.674c-1.409-5.438-1.865-9.326-1.078-10.918.912-1.857,1.136-2.139,4.974,7.113,2.155,5.231,4.825,6.193,7.221,6.516a39.31,39.31,0,0,1,16.364,6.143S93.265,274.524,89.369,272.418Z" transform="translate(-32.124 -214.113)" fill="#ad6359"/>
      <path id="Path_431" data-name="Path 431" d="M83.566,233.312l9.019,16.7c.265.5.066.953-.448,1.028l-9.119,1.343a1.5,1.5,0,0,1-1.409-.754L72.582,234.92a.638.638,0,0,1,.439-1.028l9.119-1.343a1.492,1.492,0,0,1,1.426.763Z" transform="translate(-31.818 -212.685)" fill="#263238"/>
      <path id="Path_432" data-name="Path 432" d="M84.556,233.213l9.019,16.713a.638.638,0,0,1-.448,1.028l-9.119,1.335a1.467,1.467,0,0,1-1.409-.754l-9.028-16.713a.63.63,0,0,1,.439-1.02l9.119-1.343a1.484,1.484,0,0,1,1.426.754Z" transform="translate(-31.987 -212.669)" fill="#37474f"/>
      <path id="Path_433" data-name="Path 433" d="M84.615,234.262l8.29,15.328c.257.464.091.9-.365.962l-8.174,1.2a1.385,1.385,0,0,1-1.285-.721L74.792,235.7c-.514-.953-.257-1.219.2-1.285l1.658-.24a.365.365,0,0,1,.29.207v.05c.158.3.332.274.547.24l3.78-.555c.216,0,.381-.058.224-.348v-.058c-.066-.124-.041-.24.05-.257l1.658-.24C83.612,233.152,84.143,233.392,84.615,234.262Z" transform="translate(-32.171 -212.798)" fill="#fff"/>
      <path id="Path_434" data-name="Path 434" d="M80.537,234.084l-1.036.149a.091.091,0,0,1-.091-.05h0v-.066l1.028-.158a.124.124,0,0,1,.1.058h0a.041.041,0,0,1,0,.066Z" transform="translate(-33.009 -212.927)" fill="#fff"/>
      <path id="Path_435" data-name="Path 435" d="M88.667,244.274l-6.939,1.02L78.18,238.72l6.939-1.02Z" transform="translate(-32.798 -213.566)" fill="#1672a1"/>
      <path id="Path_436" data-name="Path 436" d="M87.171,247.36l-4.054.6-.207-.39,4.054-.6Z" transform="translate(-33.607 -215.152)" fill="#a6a6a6"/>
      <path id="Path_437" data-name="Path 437" d="M88.349,248.031l-4.8.7-.1-.191,4.792-.7Z" transform="translate(-33.7 -215.3)" fill="#a6a6a6"/>
      <path id="Path_438" data-name="Path 438" d="M88.579,248.461l-4.8.7-.1-.191,4.8-.7Z" transform="translate(-33.739 -215.374)" fill="#a6a6a6"/>
      <path id="Path_439" data-name="Path 439" d="M88.809,248.889l-4.8.7-.1-.2,4.792-.7Z" transform="translate(-33.778 -215.446)" fill="#a6a6a6"/>
      <path id="Path_440" data-name="Path 440" d="M77.723,236.327l-.862.133-.091-.166.87-.124Z" transform="translate(-32.557 -213.305)" fill="#a6a6a6"/>
      <path id="Path_441" data-name="Path 441" d="M77.913,236.686l-.862.124-.091-.158.87-.133Z" transform="translate(-32.59 -213.365)" fill="#a6a6a6"/>
      <path id="Path_442" data-name="Path 442" d="M78.1,237.038l-.862.124L77.15,237l.87-.124Z" transform="translate(-32.622 -213.426)" fill="#a6a6a6"/>
      <path id="Path_443" data-name="Path 443" d="M91.23,246.736a.473.473,0,0,1-.124.232,1.127,1.127,0,0,1-.332-.166c-.207-.133-.307-.348-.133-.373a.281.281,0,0,1,.265.158s-.075-.182.058-.207S91.272,246.57,91.23,246.736Z" transform="translate(-34.914 -215.05)" fill="#1672a1"/>
      <path id="Path_444" data-name="Path 444" d="M92.356,252.207l-5.6.821-.812-1.517,5.6-.821Z" transform="translate(-34.125 -215.788)" fill="#1672a1"/>
      <path id="Path_445" data-name="Path 445" d="M86.983,256.2c2.487.414-4.792-5.8-4.485-8.646s2.91-1.525,4.825.39c6.632,6.632,12.335,7.254,15.328,13.1S86.983,256.2,86.983,256.2Z" transform="translate(-33.535 -214.97)" fill="#ad6359"/>
      <path id="Path_446" data-name="Path 446" d="M128.778,265.974c-.721.531-1.418,1.086-2.114,1.658a13.482,13.482,0,0,1-2.023,1.459,4.079,4.079,0,0,1-2.719.133,24.22,24.22,0,0,1-2.4-.622,72.4,72.4,0,0,1-9.434-3.722,49.469,49.469,0,0,1-5.065-2.487l.182.224a12.078,12.078,0,0,0-1.4-2.255,14.6,14.6,0,0,0-2.147-2.205A25.147,25.147,0,0,0,99,256.241c-.481-.307-.97-.605-1.459-.9l-.713-.473a3.209,3.209,0,0,1-.829-.531c.058.083.174,0,.1-.083h-.083a.05.05,0,0,0,0,.058c.075.141.249.207.373.3l.68.514,1.277.937c.953.688,1.915,1.393,2.827,2.147a21.73,21.73,0,0,1,2.2,2.081c.348.373.663.779.995,1.177a9.245,9.245,0,0,1,.829,1.227c0,.041,2.993,1.658,4.543,2.487a48.414,48.414,0,0,0,4.767,2.18c1.625.655,3.266,1.252,4.974,1.774a21.089,21.089,0,0,0,2.586.655,4.253,4.253,0,0,0,2.388,0,9.119,9.119,0,0,0,2.089-1.658c.829-.7,1.658-1.409,2.487-2.147C128.87,266.007,128.82,265.949,128.778,265.974Z" transform="translate(-35.846 -216.398)" fill="#263238"/>
      <path id="Path_447" data-name="Path 447" d="M135.37,264.09,146.8,274.825s9.749-12,12.327-21.264-2.213-10.537-10.719-2.106C140.087,259.7,135.37,264.09,135.37,264.09Z" transform="translate(-42.578 -214.953)" fill="#37474f"/>
      <path id="Path_448" data-name="Path 448" d="M144.347,257.418c-1.484,1.3-2.9,2.694-4.311,4.07-.688.671-1.368,1.343-2.031,2.031-.356.365-.713.721-1.061,1.086a9.4,9.4,0,0,1-1.21,1.161c-.075.058,0,.174.083.1a19.963,19.963,0,0,1,2.172-2.006c.754-.68,1.5-1.376,2.23-2.081,1.426-1.393,2.86-2.81,4.145-4.311C144.43,257.435,144.38,257.394,144.347,257.418Z" transform="translate(-42.635 -216.937)" fill="#263238"/>
      <path id="Path_449" data-name="Path 449" d="M158.43,265.02a9.946,9.946,0,0,1-1.243,1.26l-.514.464c.771-1.277,1.509-2.57,2.18-3.888h0c-1.7,2.487-3.258,5.1-4.974,7.6s-3.316,5.206-5.115,7.676a.066.066,0,1,0,.1.075c1.774-2.487,3.689-4.883,5.339-7.461.655-1.036,1.318-2.072,1.965-3.125a4.709,4.709,0,0,0,.564-.506,7.645,7.645,0,0,0,.622-.647c.381-.456.779-.9,1.185-1.343C158.579,265.053,158.48,264.962,158.43,265.02Z" transform="translate(-44.863 -217.865)" fill="#263238"/>
      <path id="Path_450" data-name="Path 450" d="M131.42,268.653l3.515-2.893,13.073,12.286-2.843,3.739Z" transform="translate(-41.903 -218.365)" fill="#37474f"/>
      <path id="Path_451" data-name="Path 451" d="M147.384,276.68c-1.617-1.658-3.366-3.192-5.057-4.767s-3.507-3.042-5.148-4.676a.066.066,0,0,0-.091.091c1.658,1.608,3.217,3.316,4.924,4.916a67.062,67.062,0,0,0,5.281,4.535C147.359,276.829,147.45,276.747,147.384,276.68Z" transform="translate(-42.87 -218.616)" fill="#263238"/>
      <path id="Path_452" data-name="Path 452" d="M145.26,281.96a30.082,30.082,0,0,1,2.388,2.023h-.282c.928-1.268,1.89-2.487,2.918-3.689v.149c-.307-.332-.613-.663-.9-1,.356.265.713.555,1.061.829l.066.066-.058.083c-.879,1.31-1.815,2.562-2.8,3.78l-.133.174-.141-.149C146.653,283.51,145.94,282.756,145.26,281.96Z" transform="translate(-44.269 -220.704)" fill="#263238"/>
      <path id="Path_453" data-name="Path 453" d="M157.394,246.61a9.411,9.411,0,0,0-2.147,1.243,23.478,23.478,0,0,0-2,1.567c-1.243,1.111-2.421,2.28-3.639,3.415h0c.531-.647,1.1-1.26,1.658-1.857a16.966,16.966,0,0,1,1.865-1.658c.647-.514,1.3-1.045,1.99-1.517a9.749,9.749,0,0,1,2.213-1.169h0Z" transform="translate(-45.013 -215.09)" fill="#263238"/>
    </g>
  </g>
</svg>
