<svg xmlns="http://www.w3.org/2000/svg" width="20" height="20" viewBox="0 0 20 20"><g transform="translate(-1.787 -0.893)"><path d="M11.787,20.893c-4.97,0-10-.937-10-2.727,0-1.3,2.471-1.982,4.543-2.322a.5.5,0,0,1,.581.366.46.46,0,0,1-.4.528c-2.711.445-3.721,1.112-3.721,1.428,0,.617,3.177,1.818,9,1.818s9-1.2,9-1.818c0-.316-1.01-.982-3.721-1.428a.459.459,0,0,1-.4-.528.5.5,0,0,1,.581-.366c2.073.34,4.543,1.019,4.543,2.322C21.787,19.957,16.756,20.893,11.787,20.893Zm8-12.727c0,5.633-7.407,10.187-7.723,10.378a.541.541,0,0,1-.555,0c-.316-.191-7.723-4.745-7.723-10.378,0-4.01,3.589-7.273,8-7.273S19.787,4.156,19.787,8.166Zm-4.5,0a3.352,3.352,0,0,0-3.5-3.182,3.352,3.352,0,0,0-3.5,3.182,3.352,3.352,0,0,0,3.5,3.182A3.352,3.352,0,0,0,15.287,8.166Z" transform="translate(0)" fill="#0d4966"/></g></svg>