<svg xmlns="http://www.w3.org/2000/svg" width="20.554" height="24.741" viewBox="0 0 20.554 24.741"><g transform="translate(-37.4)"><g transform="translate(37.4)"><path d="M41.206,12.371a.951.951,0,0,1-.952.952h-1.9a.951.951,0,0,1-.952-.952h0a.951.951,0,0,1,.952-.952h1.9a.951.951,0,0,1,.952.952Zm0-6.09a.951.951,0,0,0-.952-.952h-1.9a.951.951,0,0,0-.952.952h0a.951.951,0,0,0,.952.952h1.9a.951.951,0,0,0,.952-.952Zm0,12.18a.951.951,0,0,0-.952-.952h-1.9a.951.951,0,0,0-.952.952h0a.951.951,0,0,0,.952.952h1.9a.951.951,0,0,0,.952-.952ZM57.954,3.045V21.7a3.045,3.045,0,0,1-3.045,3.045H41.587A3.045,3.045,0,0,1,38.542,21.7V20.173h1.713a1.713,1.713,0,0,0,0-3.426H38.542V14.083h1.713a1.713,1.713,0,1,0,0-3.426H38.542V7.993h1.713a1.713,1.713,0,1,0,0-3.426H38.542V3.045A3.045,3.045,0,0,1,41.587,0H54.909A3.045,3.045,0,0,1,57.954,3.045ZM45.883,9.026A2.936,2.936,0,1,0,48.819,6.09,2.936,2.936,0,0,0,45.883,9.026Zm7.5,7.178a3.263,3.263,0,0,0-3.262-3.262h-2.61A3.263,3.263,0,0,0,44.251,16.2v1.305h9.135Z" transform="translate(-37.4)" fill="#0d4966"/></g></g></svg>