<svg xmlns="http://www.w3.org/2000/svg" width="20.158" height="20.158" viewBox="0 0 20.158 20.158"><g transform="translate(0 0)"><path d="M373.623,118.665a2.356,2.356,0,0,1,.7.106l2.015-2.015-.939-.939-2.848,2.848Z" transform="translate(-357.882 -111.257)" fill="#0d4966"/><path d="M445.961,161.406l-.522-.522-1.825,1.825a2.353,2.353,0,0,1,.637,1.612v.465l1.709-1.709A1.181,1.181,0,0,0,445.961,161.406Z" transform="translate(-426.149 -154.55)" fill="#0d4966"/><path d="M128.174,3.725,124.795.346a1.181,1.181,0,0,0-1.67,0l-7.062,7.062h8.428Z" transform="translate(-111.492 0)" fill="#0d4966"/><path d="M78.734,313.264h1.8v1.328h-1.8Z" transform="translate(-75.634 -300.93)" fill="#0d4966"/><path d="M15.741,218.167H1.181A1.181,1.181,0,0,0,0,219.348v9.206a1.181,1.181,0,0,0,1.181,1.181h14.56a1.181,1.181,0,0,0,1.181-1.181v-9.206A1.181,1.181,0,0,0,15.741,218.167ZM1.919,220.73H6.08v3.69H1.919Zm2.3,6.443H1.882v-1.181H4.216Zm3.608,0H5.49v-1.181H7.824Zm3.608,0H9.1v-1.181h2.334Zm3.608,0H12.706v-1.181H15.04Z" transform="translate(0 -209.577)" fill="#0d4966"/></g></svg>