<svg xmlns="http://www.w3.org/2000/svg" width="20" height="19.655" viewBox="0 0 20 19.655"><g transform="translate(-56.086 -4.83)"><g transform="translate(56.086 4.83)"><g transform="translate(0)"><path d="M6.937,0h5.781V2.312H6.937Z" transform="translate(0.172)" fill="#0d4966"/><path d="M10.406,7.515H9.25V6.359H8.093V9.828h3.469V6.359H10.406Z" transform="translate(0.172)" fill="#0d4966"/><path d="M18.724,1.156V3.469H7.057V1.156H2.89v18.5h20V1.156ZM8.724,5.2h8.333v5.781H8.724Zm.833,12.718H6.224V16.765H9.557Zm0-2.312H6.224V14.452H9.557Zm10,2.312H11.224V16.765h8.333Zm0-2.312H11.224V14.452h8.333Zm0-2.312H6.224V12.14H19.557Z" transform="translate(-2.89)" fill="#0d4966"/></g></g></g></svg>