<svg xmlns="http://www.w3.org/2000/svg" width="20" height="20" viewBox="0 0 20 20"><g transform="translate(-0.008)"><g transform="translate(0.008)"><path d="M10.008,0a10,10,0,1,0,10,9.995A10,10,0,0,0,10.008,0Zm.713,15.559a1.178,1.178,0,0,1-.806.311,1.218,1.218,0,0,1-.826-.306,1.074,1.074,0,0,1-.353-.857,1.1,1.1,0,0,1,.341-.822,1.152,1.152,0,0,1,.837-.333,1.139,1.139,0,0,1,1.156,1.155A1.084,1.084,0,0,1,10.721,15.559Zm2.9-7.18a3.535,3.535,0,0,1-.636.857q-.368.361-1.322,1.213a5.472,5.472,0,0,0-.422.422,1.721,1.721,0,0,0-.236.334,1.607,1.607,0,0,0-.12.3q-.042.151-.128.531a.862.862,0,0,1-.922.806.945.945,0,0,1-.679-.264,1.036,1.036,0,0,1-.275-.783,2.886,2.886,0,0,1,.2-1.128,2.851,2.851,0,0,1,.535-.838,12.259,12.259,0,0,1,.9-.857q.5-.434.717-.655a2.217,2.217,0,0,0,.372-.492,1.185,1.185,0,0,0,.151-.589,1.368,1.368,0,0,0-.461-1.047,1.685,1.685,0,0,0-1.19-.427,1.647,1.647,0,0,0-1.256.43,3.433,3.433,0,0,0-.682,1.268q-.264.876-1,.876a.984.984,0,0,1-.733-.306.937.937,0,0,1-.3-.663A2.805,2.805,0,0,1,6.6,5.879a3.64,3.64,0,0,1,1.38-1.252,4.341,4.341,0,0,1,2.116-.5,4.516,4.516,0,0,1,1.985.415,3.217,3.217,0,0,1,1.33,1.128,2.768,2.768,0,0,1,.469,1.551A2.388,2.388,0,0,1,13.617,8.379Z" transform="translate(-0.008)" fill="#0d4966"/></g></g></svg>