<svg xmlns="http://www.w3.org/2000/svg" width="20.028" height="20.028" viewBox="0 0 20.028 20.028"><g transform="translate(0 -0.004)"><path d="M12.517,10.852a.834.834,0,0,0-.834.834v3.338a.835.835,0,0,1-.835.834h-2.5V3.342A1.682,1.682,0,0,0,7.208,1.755l-.247-.083h3.887a.835.835,0,0,1,.835.835v2.5a.834.834,0,1,0,1.669,0v-2.5a2.507,2.507,0,0,0-2.5-2.5H1.878a.655.655,0,0,0-.089.018C1.748.019,1.71,0,1.669,0A1.671,1.671,0,0,0,0,1.673V16.694A1.682,1.682,0,0,0,1.137,18.28l5.022,1.674a1.728,1.728,0,0,0,.517.078,1.671,1.671,0,0,0,1.669-1.669v-.834h2.5a2.507,2.507,0,0,0,2.5-2.5V11.687a.834.834,0,0,0-.834-.834Zm0,0" fill="#0d4966"/><path d="M286.267,110.248l-3.338-3.338a.834.834,0,0,0-1.424.59V110h-3.338a.834.834,0,1,0,0,1.669H281.5v2.5a.834.834,0,0,0,1.424.59l3.338-3.338a.834.834,0,0,0,0-1.18Zm0,0" transform="translate(-266.484 -102.489)" fill="#0d4966"/></g></svg>