<svg xmlns="http://www.w3.org/2000/svg" width="20.106" height="22.876" viewBox="0 0 20.106 22.876"><g transform="translate(-30.999)"><g transform="translate(30.999)"><path d="M190.351,469.011a3.355,3.355,0,0,0,3.07-2.011h-6.141A3.355,3.355,0,0,0,190.351,469.011Z" transform="translate(-180.298 -446.135)" fill="#0d4966"/><path d="M47.977,11.074V9.606a6.937,6.937,0,0,0-4.915-6.627V2.011a2.011,2.011,0,1,0-4.021,0v.968a6.937,6.937,0,0,0-4.915,6.627v1.468a10.523,10.523,0,0,1-2.941,7.316.67.67,0,0,0,.484,1.134H50.434a.67.67,0,0,0,.484-1.134,10.523,10.523,0,0,1-2.941-7.316ZM41.722,2.713c-.221-.021-.444-.033-.67-.033s-.45.011-.67.033v-.7a.67.67,0,0,1,1.34,0Z" transform="translate(-30.999)" fill="#0d4966"/><path d="M392.241,58.812a.67.67,0,1,0,1.34,0,9.987,9.987,0,0,0-2.944-7.108.67.67,0,0,0-.948.948A8.655,8.655,0,0,1,392.241,58.812Z" transform="translate(-373.475 -49.206)" fill="#0d4966"/><path d="M31.67,59.482a.67.67,0,0,0,.67-.67,8.656,8.656,0,0,1,2.552-6.161.67.67,0,1,0-.948-.948A9.987,9.987,0,0,0,31,58.812.67.67,0,0,0,31.67,59.482Z" transform="translate(-31 -49.206)" fill="#0d4966"/></g></g></svg>