<svg xmlns="http://www.w3.org/2000/svg" width="20" height="24.486" viewBox="0 0 20 24.486"><g transform="translate(-53.023)"><g transform="translate(53.023 4.83)"><path d="M73.011,116.366l-1.126-13.778A1.753,1.753,0,0,0,70.124,101H67.9v3.2a.739.739,0,0,1-1.478,0V101h-6.8v3.2a.739.739,0,0,1-1.478,0V101H55.923a1.753,1.753,0,0,0-1.761,1.581l-1.127,13.782a3.928,3.928,0,0,0,1.082,3.014,4.179,4.179,0,0,0,3.013,1.278H68.917a4.179,4.179,0,0,0,3.013-1.278A3.927,3.927,0,0,0,73.011,116.366Zm-6.659-7.017-3.821,3.709a.754.754,0,0,1-1.045,0L59.7,111.32a.7.7,0,0,1,0-1.014.754.754,0,0,1,1.045,0l1.269,1.231,3.3-3.2a.755.755,0,0,1,1.045,0A.7.7,0,0,1,66.352,109.35Z" transform="translate(-53.023 -101.005)" fill="#0d4966"/></g><g transform="translate(58.291)"><path d="M161.772,0a4.739,4.739,0,0,0-4.733,4.733v.1h1.434v-.1a3.3,3.3,0,1,1,6.6,0v.1H166.5v-.1A4.739,4.739,0,0,0,161.772,0Z" transform="translate(-157.039)" fill="#0d4966"/></g></g></svg>