<svg xmlns="http://www.w3.org/2000/svg" width="20" height="14.528" viewBox="0 0 20 14.528"><g transform="translate(0 -106)"><g transform="translate(0 106)"><circle cx="0.5" cy="0.5" r="0.5" transform="translate(7.429 4.675)" fill="#0d4966"/><circle cx="0.5" cy="0.5" r="0.5" transform="translate(12.072 9.35)" fill="#0d4966"/><path d="M18.242,106H1.758A2.005,2.005,0,0,0,0,108.179v2.906a.667.667,0,0,0,.586.726h.586a1.486,1.486,0,0,1,0,2.906H.586a.667.667,0,0,0-.586.726v2.906a2.005,2.005,0,0,0,1.758,2.179H18.242A2.005,2.005,0,0,0,20,118.348v-2.906a.667.667,0,0,0-.586-.726h-.586a1.486,1.486,0,0,1,0-2.906h.586a.667.667,0,0,0,.586-.726v-2.906A2.005,2.005,0,0,0,18.242,106ZM5.9,111.085a2.005,2.005,0,0,1,1.758-2.179,2.23,2.23,0,0,1,0,4.358A2.005,2.005,0,0,1,5.9,111.085Zm1.392,6.379a.851.851,0,0,1-.092-1.021l4.688-7.264a.515.515,0,0,1,.824-.114.851.851,0,0,1,.092,1.021L8.114,117.35A.514.514,0,0,1,7.29,117.463Zm5.054.159a2.23,2.23,0,0,1,0-4.358,2.23,2.23,0,0,1,0,4.358Z" transform="translate(0 -106)" fill="#0d4966"/></g></g></svg>