<svg xmlns="http://www.w3.org/2000/svg" width="30.425" height="23.555" viewBox="0 0 30.425 23.555"><g transform="translate(-1.001 -7.999)"><g transform="translate(1.001 7.999)"><path d="M13.685,34.833H24.556a.491.491,0,0,0,.491-.491V26.491A.491.491,0,0,0,24.556,26H7.871a.491.491,0,0,0-.491.491V29a5.406,5.406,0,0,0-3.242.522l-.568.284A5.77,5.77,0,0,1,1,30.417V31.4a6.761,6.761,0,0,0,3.008-.71l.568-.284a4.622,4.622,0,0,1,4.852.514l2.828,2.262a1.388,1.388,0,0,1,.288,1.854l-.394.59L8.143,32.953l-.544.817,4.417,2.944a.491.491,0,0,0,.2.077l8.207,1.3a.832.832,0,0,1-.13,1.654h-7.51a7.862,7.862,0,0,1-3.5-.826L6.463,37.506a6.761,6.761,0,0,0-3.008-.71H1v.981H3.455a5.77,5.77,0,0,1,2.569.607L8.84,39.792a8.852,8.852,0,0,0,3.938.929h7.51a1.814,1.814,0,0,0,.283-3.605l-7.45-1.176.24-.361a2.355,2.355,0,0,0,.323-.746Zm8.467-.981a2.461,2.461,0,0,1,1.913-1.913v1.913Zm1.913-4.957a2.461,2.461,0,0,1-1.913-1.913h1.913Zm-13.79-1.913a2.461,2.461,0,0,1-1.913,1.913V26.981Zm2.6,5.432-1.882-1.506h1.79v-.981H10.815v.844l-.772-.618a5.454,5.454,0,0,0-.783-.522,3.442,3.442,0,0,0,2.007-2.648H21.16a3.437,3.437,0,0,0,2.905,2.905v1.06a3.437,3.437,0,0,0-2.905,2.905H13.721a2.359,2.359,0,0,0-.85-1.439Z" transform="translate(-1.001 -17.166)" fill="#88293e"/><path d="M29.454,34.907A2.454,2.454,0,1,0,27,32.454,2.456,2.456,0,0,0,29.454,34.907Zm0-3.926a1.472,1.472,0,1,1-1.472,1.472A1.474,1.474,0,0,1,29.454,30.981Z" transform="translate(-14.242 -19.204)" fill="#88293e"/><path d="M39,34h1.963v.981H39Z" transform="translate(-20.353 -21.241)" fill="#88293e"/><path d="M29.833,9.472H27.87V8.49a.491.491,0,0,0-.711-.439L21.271,11a.491.491,0,0,0,0,.878l5.889,2.944a.491.491,0,0,0,.71-.439V13.4h1.963a7.861,7.861,0,0,1,7.852,7.852.491.491,0,0,0,.491.491H41.12a.491.491,0,0,0,.491-.491A11.791,11.791,0,0,0,29.833,9.472Zm8.82,11.287a8.845,8.845,0,0,0-8.82-8.342H27.379a.491.491,0,0,0-.491.491v.678l-4.3-2.15,4.3-2.15v.678a.491.491,0,0,0,.491.491h2.454A10.81,10.81,0,0,1,40.618,20.759Z" transform="translate(-11.186 -7.999)" fill="#88293e"/></g></g></svg>