<svg xmlns="http://www.w3.org/2000/svg" width="30" height="30" viewBox="0 0 30 30"><g transform="translate(-2 -3)"><g transform="translate(2 3)"><path d="M31.854,16.082,28.681,12.8l2.7-3.257A.53.53,0,0,0,31.49,9.1a.515.515,0,0,0-.266-.36l-11-5.69a.488.488,0,0,0-.6.126L17,6.343,14.38,3.18a.488.488,0,0,0-.6-.126l-11,5.69a.515.515,0,0,0-.266.36.53.53,0,0,0,.111.439l2.7,3.257L2.147,16.082a.529.529,0,0,0-.14.449.516.516,0,0,0,.27.38L5.5,18.578v8.215a.519.519,0,0,0,.276.463l11,5.69a.485.485,0,0,0,.447,0l11-5.69a.519.519,0,0,0,.276-.463V18.578l3.224-1.667a.516.516,0,0,0,.27-.38.529.529,0,0,0-.14-.449ZM17,17.938,7.118,12.827,17,7.716l9.882,5.111ZM20.126,4.16,30.2,9.373l-2.329,2.811L17.8,6.971Zm-6.251,0L16.2,6.971,6.126,12.184,3.8,9.373ZM6.1,13.457l10.057,5.2L13.4,21.508l-10.057-5.2ZM6.5,19.1l6.776,3.5a.5.5,0,0,0,.577-.1L16.5,19.765v11.88l-10-5.172Zm21,7.378-10,5.172V19.765L20.147,22.5a.511.511,0,0,0,.577.1L27.5,19.1Zm.276-8.677L20.6,21.508l-2.754-2.85,10.057-5.2,2.754,2.85Z" transform="translate(-2 -3)" fill="#a3314a"/></g></g></svg>