<svg xmlns="http://www.w3.org/2000/svg" width="20" height="20" viewBox="0 0 20 20"><g transform="translate(-15 594.342)"><g transform="translate(15 -594.342)"><path d="M181,393.07A2.066,2.066,0,1,0,183.066,391,2.069,2.069,0,0,0,181,393.07Zm2.066-.689a.689.689,0,1,1-.689.689A.69.69,0,0,1,183.066,392.382Z" transform="translate(-174.195 -375.137)" fill="#938488"/><path d="M332,393.07A2.066,2.066,0,1,0,334.066,391,2.069,2.069,0,0,0,332,393.07Zm2.066-.689a.689.689,0,1,1-.689.689A.69.69,0,0,1,334.066,392.382Z" transform="translate(-319.517 -375.137)" fill="#938488"/><path d="M19.414,33.649H4.583l-.548-2.165A.6.6,0,0,0,3.471,31H.586a.666.666,0,0,0,0,1.322H3.029L5.858,43.5l-.222.5a1.985,1.985,0,0,0,1.572,2.87H17.07a.666.666,0,0,0,0-1.322H7.209a.662.662,0,0,1-.524-.957l.162-.365H17.07a.6.6,0,0,0,.563-.479l2.344-9.256A.65.65,0,0,0,19.414,33.649ZM16.628,42.9h-9.7L4.917,34.971h13.72Z" transform="translate(0 -31.004)" fill="#938488"/></g></g></svg>