<svg xmlns="http://www.w3.org/2000/svg" width="21" height="20" viewBox="0 0 21 20"><g transform="translate(0 -0.238)"><path d="M108.409,105.546c0-3.557-3.181-6.451-7.09-6.451s-7.09,2.894-7.09,6.451S97.41,112,101.319,112,108.409,109.1,108.409,105.546Zm-7.75,3.79v-.622a2.5,2.5,0,0,1-1.506-.4.591.591,0,0,1-.165-.858.69.69,0,0,1,.919-.154,1.091,1.091,0,0,0,.575.182h1.6a.661.661,0,1,0,0-1.32H100.56a1.9,1.9,0,1,1,.1-3.784v-.622a.662.662,0,0,1,1.32,0v.622a2.441,2.441,0,0,1,1.748.7.588.588,0,0,1-.031.871.693.693,0,0,1-.933-.029,1.068,1.068,0,0,0-.738-.313h-1.465a.661.661,0,1,0,0,1.32h1.519a1.9,1.9,0,1,1-.1,3.784v.622a.662.662,0,0,1-1.32,0Z" transform="translate(-90.819 -95.28)" fill="#136892"/><path d="M4.224,17.547l-.3-2.28a.553.553,0,0,0-.613-.5.587.587,0,0,0-.461.671l.066.511A9.174,9.174,0,0,1,1.6,13.392C-.6,6.814,4.71.18,10.906,1.625a.545.545,0,0,0,.644-.457.6.6,0,0,0-.418-.7C4.136-1.168-1.932,6.3.577,13.8a10.4,10.4,0,0,0,1.5,2.887l-.525-.11a.547.547,0,0,0-.635.471.593.593,0,0,0,.431.695l2.194.461a.564.564,0,0,0,.686-.656Z" transform="translate(0 0)" fill="#136892"/><path d="M202.183,60.239a10.4,10.4,0,0,0-1.5-2.887l.525.11a.548.548,0,0,0,.635-.471.593.593,0,0,0-.431-.695l-2.194-.461a.564.564,0,0,0-.686.656l.3,2.28a.553.553,0,0,0,.613.5.587.587,0,0,0,.461-.671l-.066-.511a9.175,9.175,0,0,1,1.323,2.552c2.2,6.577-3.113,13.212-9.309,11.767a.545.545,0,0,0-.644.457.6.6,0,0,0,.418.7c7,1.632,13.065-5.835,10.556-13.335Z" transform="translate(-181.76 -53.563)" fill="#136892"/></g></svg>