<svg xmlns="http://www.w3.org/2000/svg" width="20" height="20" viewBox="0 0 20 20"><path d="M17.656,10.781H13.125a2.346,2.346,0,0,0-2.344,2.344v4.531A2.346,2.346,0,0,0,13.125,20h4.531A2.346,2.346,0,0,0,20,17.656V13.125A2.346,2.346,0,0,0,17.656,10.781Zm.781,6.875a.782.782,0,0,1-.781.781H13.125a.782.782,0,0,1-.781-.781V13.125a.782.782,0,0,1,.781-.781h4.531a.782.782,0,0,1,.781.781ZM6.875,10.781H2.344A2.346,2.346,0,0,0,0,13.125v4.531A2.346,2.346,0,0,0,2.344,20H6.875a2.346,2.346,0,0,0,2.344-2.344V13.125A2.346,2.346,0,0,0,6.875,10.781Zm.781,6.875a.782.782,0,0,1-.781.781H2.344a.782.782,0,0,1-.781-.781V13.125a.782.782,0,0,1,.781-.781H6.875a.782.782,0,0,1,.781.781ZM6.875,0H2.344A2.346,2.346,0,0,0,0,2.344V6.875A2.346,2.346,0,0,0,2.344,9.219H6.875A2.346,2.346,0,0,0,9.219,6.875V2.344A2.346,2.346,0,0,0,6.875,0Zm.781,6.875a.782.782,0,0,1-.781.781H2.344a.782.782,0,0,1-.781-.781V2.344a.782.782,0,0,1,.781-.781H6.875a.782.782,0,0,1,.781.781ZM17.656,0H13.125a2.346,2.346,0,0,0-2.344,2.344V6.875a2.346,2.346,0,0,0,2.344,2.344h4.531A2.346,2.346,0,0,0,20,6.875V2.344A2.346,2.346,0,0,0,17.656,0Zm.781,6.875a.782.782,0,0,1-.781.781H13.125a.782.782,0,0,1-.781-.781V2.344a.782.782,0,0,1,.781-.781h4.531a.782.782,0,0,1,.781.781Z" fill="#938488"/></svg>