<svg xmlns="http://www.w3.org/2000/svg" width="12.563" height="12.418" viewBox="0 0 12.563 12.418"><g transform="translate(0 -1.844)"><g transform="translate(0.001 1.844)"><g transform="translate(0)"><path d="M1.191,14.858a1.19,1.19,0,0,1-.845-.286,1.19,1.19,0,0,1,0-1.678l10.1-10.1A1.19,1.19,0,0,1,12.187,4.41L2.024,14.573a1.19,1.19,0,0,1-.833.286Z" transform="translate(-0.001 -2.446)" fill="rgba(140,140,140,0.5)"/><path d="M12.75,14.256a1.19,1.19,0,0,1-.833-.345l-10.1-10.1A1.19,1.19,0,0,1,3.492,2.13l10.162,10.1a1.19,1.19,0,0,1,.055,1.682q-.027.029-.055.055a1.19,1.19,0,0,1-.9.286Z" transform="translate(-1.468 -1.844)" fill="rgba(140,140,140,0.5)"/></g></g></g></svg>