<svg xmlns="http://www.w3.org/2000/svg" width="20.745" height="20.745" viewBox="0 0 20.745 20.745"><g transform="translate(0 0)"><path d="M373.654,118.748a2.424,2.424,0,0,1,.72.109l2.074-2.074-.966-.966-2.931,2.931Z" transform="translate(-357.455 -111.124)" fill="#136892"/><path d="M446.03,161.421l-.537-.537-1.878,1.878a2.422,2.422,0,0,1,.656,1.658v.478l1.759-1.759A1.215,1.215,0,0,0,446.03,161.421Z" transform="translate(-425.641 -154.365)" fill="#136892"/><path d="M128.526,3.833,125.049.356a1.215,1.215,0,0,0-1.719,0l-7.268,7.268h8.673Z" transform="translate(-111.359 0)" fill="#136892"/><path d="M78.734,313.264h1.852v1.367H78.734Z" transform="translate(-75.544 -300.571)" fill="#136892"/><path d="M16.2,218.167H1.216A1.215,1.215,0,0,0,0,219.383v9.474a1.215,1.215,0,0,0,1.216,1.216H16.2a1.216,1.216,0,0,0,1.216-1.216v-9.474A1.216,1.216,0,0,0,16.2,218.167ZM1.975,220.8H6.257v3.8H1.975Zm2.365,6.63h-2.4v-1.216h2.4Zm3.713,0H5.65v-1.216h2.4Zm3.713,0h-2.4v-1.216h2.4Zm3.713,0h-2.4v-1.216h2.4Z" transform="translate(0 -209.327)" fill="#136892"/></g></svg>