<svg xmlns="http://www.w3.org/2000/svg" width="20" height="20" viewBox="0 0 20 20"><g transform="translate(0 -16.896)"><g transform="translate(0 16.896)"><path d="M18.364,18.776a5.207,5.207,0,0,0-8.01,0l-.353.4-.353-.4A5.2,5.2,0,0,0,1.92,18.47q-.147.147-.284.305a6.974,6.974,0,0,0,0,8.975l7.847,8.905a.68.68,0,0,0,1.01.029l.027-.029,7.844-8.905A6.973,6.973,0,0,0,18.364,18.776ZM17.33,26.692h0L10,35.009,2.673,26.692a5.329,5.329,0,0,1,0-6.858,3.842,3.842,0,0,1,5.709-.247q.119.119.23.247l.871.989a.7.7,0,0,0,1.038,0l.871-.988a3.842,3.842,0,0,1,5.709-.247q.119.119.23.247A5.278,5.278,0,0,1,17.33,26.692Z" transform="translate(0 -16.896)" fill="#938488"/></g></g></svg>