<svg xmlns="http://www.w3.org/2000/svg" width="24" height="24" viewBox="0 0 24 24"><g transform="translate(-2 -2)"><g transform="translate(2 2)"><path d="M3.2,6.8H16.4a2.4,2.4,0,0,0,2.4,2.4h2.4a2.4,2.4,0,0,0,2.4-2.4h1.2a1.2,1.2,0,1,0,0-2.4H23.6A2.4,2.4,0,0,0,21.2,2H18.8a2.4,2.4,0,0,0-2.4,2.4H3.2a1.2,1.2,0,1,0,0,2.4ZM18.8,4.4h2.4V6.8H18.8Zm6,8.4H14a2.4,2.4,0,0,0-2.4-2.4H9.2a2.4,2.4,0,0,0-2.4,2.4H3.2a1.2,1.2,0,1,0,0,2.4H6.8a2.4,2.4,0,0,0,2.4,2.4h2.4A2.4,2.4,0,0,0,14,15.2H24.8a1.2,1.2,0,1,0,0-2.4ZM9.2,15.2V12.8h2.4v2.4Zm15.6,6H21.2a2.4,2.4,0,0,0-2.4-2.4H16.4A2.4,2.4,0,0,0,14,21.2H3.2a1.2,1.2,0,1,0,0,2.4H14A2.4,2.4,0,0,0,16.4,26h2.4a2.4,2.4,0,0,0,2.4-2.4h3.6a1.2,1.2,0,1,0,0-2.4Zm-8.4,2.4V21.2h2.4v2.4Z" transform="translate(-2 -2)" fill="#1572a1"/></g></g></svg>