<svg xmlns="http://www.w3.org/2000/svg" width="12.418" height="12.418" viewBox="0 0 12.418 12.418"><path d="M6.209,12.418A6.209,6.209,0,1,0,0,6.209,6.217,6.217,0,0,0,6.209,12.418Zm0-11.591A5.381,5.381,0,1,1,.828,6.209,5.386,5.386,0,0,1,6.209.828Z" fill="rgba(140,140,140,0.5)"/><path d="M169.892,77.562a.408.408,0,0,0,.259.091.414.414,0,0,0,.259-.737l-1.915-1.532V72.272a.414.414,0,0,0-.828,0v3.312a.415.415,0,0,0,.155.323Z" transform="translate(-161.872 -69.374)" fill="rgba(140,140,140,0.5)"/></svg>