<svg xmlns="http://www.w3.org/2000/svg" width="40" height="40" viewBox="0 0 40 40"><g transform="translate(-36 -167)"><circle cx="20" cy="20" r="20" transform="translate(36 167)" fill="#faeef1"/><g transform="translate(15.941 177.074)"><g transform="translate(30.999)"><path d="M190.048,468.812A3.024,3.024,0,0,0,192.815,467h-5.534A3.024,3.024,0,0,0,190.048,468.812Z" transform="translate(-180.988 -448.195)" fill="#0a3449"/><path d="M46.3,9.981V8.657a6.252,6.252,0,0,0-4.429-5.973V1.812a1.812,1.812,0,1,0-3.624,0v.873a6.252,6.252,0,0,0-4.429,5.973V9.981a9.484,9.484,0,0,1-2.651,6.594A.6.6,0,0,0,31.6,17.6H48.515a.6.6,0,0,0,.436-1.022A9.484,9.484,0,0,1,46.3,9.981ZM40.663,2.445c-.2-.019-.4-.029-.6-.029s-.405.01-.6.029V1.812a.6.6,0,0,1,1.208,0Z" transform="translate(-30.999)" fill="#0a3449"/><path d="M391.969,58.09a.6.6,0,0,0,1.208,0,9,9,0,0,0-2.654-6.407.6.6,0,1,0-.854.854A7.8,7.8,0,0,1,391.969,58.09Z" transform="translate(-375.057 -49.433)" fill="#0a3449"/><path d="M31.6,58.695a.6.6,0,0,0,.6-.6,7.8,7.8,0,0,1,2.3-5.552.6.6,0,1,0-.854-.854A9,9,0,0,0,31,58.091.6.6,0,0,0,31.6,58.695Z" transform="translate(-31 -49.433)" fill="#0a3449"/></g></g></g></svg>