<svg xmlns="http://www.w3.org/2000/svg" width="20" height="20" viewBox="0 0 20 20"><g transform="translate(-4.8 -1)"><g transform="translate(4.8 1)"><path d="M17.466,17.667a.723.723,0,0,1-.763.625H6.682a.723.723,0,0,1-.763-.625V2.542a.723.723,0,0,1,.763-.625h2.7a.734.734,0,0,1,.661.375.664.664,0,0,0,.661.375h1.933a.793.793,0,0,0,.712-.375.713.713,0,0,1,.661-.375h2.7a.723.723,0,0,1,.763.625V4.208h1.119V2.458A1.664,1.664,0,0,0,16.8,1H6.58A1.664,1.664,0,0,0,4.8,2.458V19.542A1.664,1.664,0,0,0,6.58,21H16.8a1.664,1.664,0,0,0,1.78-1.458V13.5H17.466ZM11.718,20.25a.723.723,0,0,1-.763-.625A.69.69,0,0,1,11.718,19a.637.637,0,1,1,0,1.25Z" transform="translate(-4.8 -1)" fill="#136892"/><path d="M27.372,11.962A4.276,4.276,0,0,0,24.334,10.7H18.4A4.288,4.288,0,0,0,14.1,15v7.056l2.8-2.8h7.43a4.263,4.263,0,0,0,3.038-7.29ZM19.334,15.42A.421.421,0,1,1,19.754,15,.419.419,0,0,1,19.334,15.42Zm2.2-.7c.187.093.981.327.981,1.075a.853.853,0,0,1-.888.888v.467H21.25v-.421a1,1,0,0,1-.7-.327.965.965,0,0,1-.234-.748h.654a.5.5,0,0,0,.514.561.371.371,0,0,0,.421-.374c0-.327-.28-.421-.467-.514-.14-.047-.981-.28-.981-1.075a.876.876,0,0,1,.888-.888V12.9h.374v.467a.917.917,0,0,1,.841,1.028H21.9a.422.422,0,0,0-.421-.514.357.357,0,0,0-.374.374c-.047.234.234.374.421.467Zm1.916.7A.421.421,0,1,1,23.867,15,.419.419,0,0,1,23.446,15.42Z" transform="translate(-8.633 -7.162)" fill="#136892"/></g></g></svg>