<svg xmlns="http://www.w3.org/2000/svg" width="16" height="16" viewBox="0 0 16 16"><g transform="translate(0 0)"><path d="M65.117,13.936A6.926,6.926,0,1,1,72.04,7.01,6.925,6.925,0,0,1,65.117,13.936Zm0-11.874A4.947,4.947,0,1,0,70.062,7.01,4.946,4.946,0,0,0,65.117,2.063Z" transform="translate(-56.04 -0.084)" fill="#1572a1"/><path d="M1.08,303.446a1.074,1.074,0,0,1-.769-1.83l.006-.006,4.037-4.037a1.1,1.1,0,1,1,1.525,1.578l-4.037,3.984a1.074,1.074,0,0,1-.762.311Z" transform="translate(0 -287.446)" fill="#1572a1"/></g></svg>