<svg xmlns="http://www.w3.org/2000/svg" width="16.147" height="16.233" viewBox="0 0 16.147 16.233"><g transform="translate(0 -23.224)"><g transform="translate(0 23.224)"><g transform="translate(0 0)"><path d="M12.595,23.224H7.637a1.12,1.12,0,0,0-.837.392l-6.453,7.3a1.467,1.467,0,0,0,0,1.894L5.3,38.415a1.09,1.09,0,0,0,1.674,0l6.453-7.3a1.437,1.437,0,0,0,.347-.948V24.563A1.268,1.268,0,0,0,12.595,23.224Zm-2.072,4.687a1.012,1.012,0,0,1,0-2.009,1.012,1.012,0,0,1,0,2.009Z" transform="translate(0 -23.224)" fill="#0a3449"/></g></g><g transform="translate(8.103 24.408)"><g transform="translate(0 0)"><path d="M225.848,55.224v6.262a1.254,1.254,0,0,1-.3.827l-6.557,7.451.1.114a1.086,1.086,0,0,0,1.674,0l5.922-6.727a1.442,1.442,0,0,0,.348-.951V56.569A1.272,1.272,0,0,0,225.848,55.224Z" transform="translate(-218.988 -55.224)" fill="#0a3449"/></g></g></g></svg>