<svg xmlns="http://www.w3.org/2000/svg" width="30.108" height="19.046" viewBox="0 0 30.108 19.046"><g transform="translate(0 -94.062)"><g transform="translate(0 94.062)"><g transform="translate(0 0)"><path d="M28,102.136l-.78-3.119a.471.471,0,0,0,.373-.461v-.5a1.982,1.982,0,0,0-1.98-1.98H22.063V95.036a.975.975,0,0,0-.974-.974H2.986a.975.975,0,0,0-.974.974v8.549a.471.471,0,1,0,.943,0V95.036A.031.031,0,0,1,2.986,95h18.1a.031.031,0,0,1,.031.031v8.549a.471.471,0,1,0,.943,0v-.534h5.564a1.543,1.543,0,0,1,1.465,1.069H27.626a.471.471,0,0,0-.471.471V105.6a1.479,1.479,0,0,0,1.477,1.477h.534v2.074H27.933a2.985,2.985,0,0,0-5.643,0h-.227V105.6a.471.471,0,1,0-.943,0v3.551H11.339a2.985,2.985,0,0,0-5.643,0H2.986a.031.031,0,0,1-.031-.031v-1.037H5a.471.471,0,1,0,0-.943H.471a.471.471,0,1,0,0,.943h1.54v1.037a.975.975,0,0,0,.974.974H5.532c0,.01,0,.021,0,.031a2.986,2.986,0,0,0,5.971,0c0-.011,0-.021,0-.031H22.126c0,.01,0,.021,0,.031a2.986,2.986,0,0,0,5.971,0c0-.011,0-.021,0-.031h1.541a.471.471,0,0,0,.471-.471V104.59A2.487,2.487,0,0,0,28,102.136Zm-5.938-5.12h3.551a1.038,1.038,0,0,1,1.037,1.037v.031H22.063Zm0,5.091v-3.08h4.189l.77,3.08ZM8.517,112.165a2.043,2.043,0,1,1,2.043-2.043A2.045,2.045,0,0,1,8.517,112.165Zm16.594,0a2.043,2.043,0,1,1,2.043-2.043A2.045,2.045,0,0,1,25.111,112.165Zm4.054-6.034h-.534a.535.535,0,0,1-.534-.534v-.534h1.069v1.069Z" transform="translate(0 -94.062)" fill="#88293e"/></g></g><g transform="translate(7.543 109.148)"><g transform="translate(0 0)"><path d="M129.241,350.6a.974.974,0,1,0,.974.974A.975.975,0,0,0,129.241,350.6Z" transform="translate(-128.267 -350.597)" fill="#88293e"/></g></g><g transform="translate(24.137 109.148)"><g transform="translate(0 0)"><path d="M411.429,350.6a.974.974,0,1,0,.974.974A.975.975,0,0,0,411.429,350.6Z" transform="translate(-410.455 -350.597)" fill="#88293e"/></g></g><g transform="translate(12.068 107.136)"><path d="M212.738,316.393H205.7a.471.471,0,0,0,0,.943h7.04a.471.471,0,0,0,0-.943Z" transform="translate(-205.227 -316.393)" fill="#88293e"/></g><g transform="translate(1.006 105.125)"><g transform="translate(0 0)"><path d="M23.608,282.188H17.573a.471.471,0,0,0,0,.943h6.034a.471.471,0,0,0,0-.943Z" transform="translate(-17.102 -282.188)" fill="#88293e"/></g></g><g transform="translate(8.549 98.588)"><g transform="translate(0 0)"><path d="M153.214,171.161a.471.471,0,0,0-.667,0l-4.192,4.192-2.181-2.181a.471.471,0,0,0-.667.667l2.514,2.514a.471.471,0,0,0,.667,0l4.526-4.526A.471.471,0,0,0,153.214,171.161Z" transform="translate(-145.37 -171.023)" fill="#88293e"/></g></g></g></svg>