<svg xmlns="http://www.w3.org/2000/svg" width="20.127" height="20.127" viewBox="0 0 20.127 20.127"><path d="M63.365,3.056a1.968,1.968,0,0,1,1.966-1.966h.68L65.806.52A.785.785,0,0,0,64.8.048l-6.874,2.5a.786.786,0,0,0-.469,1.009l.363.991h5.548Z" transform="translate(-55.149)" fill="#136892"/><path d="M239.786,57.745a.786.786,0,0,0-.786.786v1.494h6.88V58.531a.786.786,0,0,0-.786-.786Z" transform="translate(-229.605 -55.475)" fill="#136892"/><path d="M18.358,155.907H15.607a2.948,2.948,0,0,1,0-5.9h2.752v-2.693a1.572,1.572,0,0,0-1.572-1.572H1.572A1.572,1.572,0,0,0,0,147.317v11.253a1.572,1.572,0,0,0,1.572,1.572H16.786a1.572,1.572,0,0,0,1.572-1.572Z" transform="translate(0 -140.016)" fill="#136892"/><path d="M357.7,284.245h-3.931a1.769,1.769,0,0,0,0,3.538H357.7a.59.59,0,0,0,.59-.59v-2.359A.59.59,0,0,0,357.7,284.245Zm-3.931,2.359a.59.59,0,1,1,.59-.59A.59.59,0,0,1,353.769,286.6Z" transform="translate(-338.162 -273.071)" fill="#136892"/></svg>